<svg xmlns="http://www.w3.org/2000/svg" width="65" height="67" viewBox="0 0 65 67" fill="none">
<path d="M55.628 21.9247H8.74642C8.12474 21.9247 7.52851 22.1794 7.08891 22.6327C6.64931 23.086 6.40234 23.7009 6.40234 24.342V58.1847C6.40234 58.8258 6.64931 59.4407 7.08891 59.894C7.52851 60.3473 8.12474 60.602 8.74642 60.602H55.628C56.2497 60.602 56.846 60.3473 57.2856 59.894C57.7252 59.4407 57.9721 58.8258 57.9721 58.1847V24.342C57.9721 23.7009 57.7252 23.086 57.2856 22.6327C56.846 22.1794 56.2497 21.9247 55.628 21.9247ZM32.1872 43.6807C31.0282 43.6807 29.8952 43.3263 28.9315 42.6622C27.9678 41.9981 27.2167 41.0543 26.7731 39.95C26.3296 38.8458 26.2135 37.6306 26.4396 36.4584C26.6658 35.2861 27.2239 34.2092 28.0434 33.3641C28.863 32.5189 29.9072 31.9433 31.044 31.7101C32.1807 31.477 33.359 31.5966 34.4298 32.054C35.5006 32.5114 36.4159 33.286 37.0598 34.2799C37.7037 35.2737 38.0474 36.4421 38.0474 37.6374C38.0474 39.2401 37.43 40.7773 36.331 41.9106C35.232 43.044 33.7415 43.6807 32.1872 43.6807Z" fill="#2984FF"/>
<path d="M55.628 21.9247H8.74642C7.45182 21.9247 6.40234 23.007 6.40234 24.342V58.1847C6.40234 59.5197 7.45182 60.602 8.74642 60.602H55.628C56.9226 60.602 57.9721 59.5197 57.9721 58.1847V24.342C57.9721 23.007 56.9226 21.9247 55.628 21.9247Z" stroke="#1E293B" stroke-width="2.24942" stroke-linecap="round" stroke-linejoin="round"/>
<path d="M20.4668 21.9247V13.0693C20.4668 10.1335 21.7016 7.31801 23.8996 5.24211C26.0976 3.16622 29.0788 2 32.1872 2C37.8569 2 42.8205 5.80229 43.9076 10.8554" stroke="#1E293B" stroke-width="2.24942" stroke-linecap="round" stroke-linejoin="round"/>
<path d="M32.1875 44.1935C36.0713 44.1935 39.2198 41.5698 39.2198 38.3333C39.2198 35.0968 36.0713 32.4731 32.1875 32.4731C28.3037 32.4731 25.1553 35.0968 25.1553 38.3333C25.1553 41.5698 28.3037 44.1935 32.1875 44.1935Z" stroke="#1E293B" stroke-width="2.24942" stroke-linecap="round" stroke-linejoin="round"/>
<path d="M32.1875 44.1935V51.2257" stroke="#1E293B" stroke-width="2.24942" stroke-linecap="round" stroke-linejoin="round"/>
</svg>