<svg xmlns="http://www.w3.org/2000/svg" width="28" height="20" viewBox="0 0 28 20" fill="none">
<path d="M8.91352 19.2963C8.32924 19.2963 7.78012 19.1852 7.26614 18.963C6.7522 18.7407 6.32968 18.4311 5.99859 18.034L0.568029 11.5453C0.189343 11.0935 0 10.599 0 10.0617C0 9.5244 0.189343 9.02989 0.568029 8.57818L5.99859 2.11673C6.32968 1.71966 6.7495 1.40547 7.25804 1.17416C7.76658 0.942818 8.31841 0.827148 8.91352 0.827148H24.9487C25.7905 0.827148 26.5095 1.07806 27.1057 1.57987C27.7019 2.08167 28 2.68683 28 3.39536V16.7281C28 17.4366 27.7019 18.0418 27.1057 18.5436C26.5095 19.0454 25.7905 19.2963 24.9487 19.2963H8.91352ZM8.91352 17.1653H24.9487C25.0786 17.1653 25.1976 17.1197 25.3059 17.0287C25.414 16.9376 25.4681 16.8374 25.4681 16.7281V3.39536C25.4681 3.28606 25.414 3.18587 25.3059 3.09478C25.1976 3.00371 25.0786 2.95818 24.9487 2.95818H8.91352C8.75119 2.95818 8.597 2.99233 8.45094 3.06064C8.30485 3.12896 8.18852 3.2132 8.10196 3.31339L2.61299 9.80215C2.54806 9.87501 2.5156 9.96153 2.5156 10.0617C2.5156 10.1619 2.54806 10.2484 2.61299 10.3213L8.10196 16.81C8.18852 16.9102 8.30485 16.9945 8.45094 17.0628C8.597 17.1311 8.75119 17.1653 8.91352 17.1653ZM16.7363 11.5589L20.2356 14.5041C20.4693 14.7008 20.763 14.8015 21.1168 14.806C21.4707 14.8106 21.7698 14.71 22.0144 14.5041C22.2589 14.2983 22.3811 14.0488 22.3811 13.7556C22.3811 13.4623 22.2589 13.2128 22.0144 13.007L18.5151 10.0617L22.0144 7.11645C22.248 6.91975 22.3676 6.6725 22.373 6.3747C22.3784 6.07691 22.2589 5.82512 22.0144 5.6193C21.7698 5.41347 21.4734 5.31055 21.1249 5.31055C20.7766 5.31055 20.4801 5.41347 20.2356 5.6193L16.7363 8.56454L13.2371 5.6193C13.0034 5.42258 12.7097 5.32195 12.3559 5.3174C12.0021 5.31283 11.7029 5.41347 11.4584 5.6193C11.2138 5.82512 11.0916 6.07464 11.0916 6.36788C11.0916 6.66111 11.2138 6.91063 11.4584 7.11645L14.9576 10.0617L11.4584 13.007C11.2247 13.2037 11.1051 13.4509 11.0997 13.7487C11.0943 14.0465 11.2138 14.2983 11.4584 14.5041C11.7029 14.71 11.9993 14.8129 12.3477 14.8129C12.6961 14.8129 12.9926 14.71 13.2371 14.5041L16.7363 11.5589Z" fill="#1C1B1F"/>
</svg>