<svg xmlns="http://www.w3.org/2000/svg" width="100" height="100" viewBox="0 0 100 100" fill="none">
<mask id="mask0_132_3742" style="mask-type:alpha" maskUnits="userSpaceOnUse" x="0" y="0" width="100" height="100">
<rect width="100" height="100" fill="#D9D9D9"/>
</mask>
<g mask="url(#mask0_132_3742)">
<path d="M50 56.58L63.63 70.21C64.4917 71.0717 65.5883 71.5025 66.92 71.5025C68.2517 71.5025 69.3483 71.0717 70.21 70.21C71.0717 69.3483 71.5025 68.2517 71.5025 66.92C71.5025 65.5883 71.0717 64.4917 70.21 63.63L56.58 50L70.21 36.37C71.0717 35.5083 71.5025 34.4117 71.5025 33.08C71.5025 31.7483 71.0717 30.6517 70.21 29.79C69.3483 28.9283 68.2517 28.4975 66.92 28.4975C65.5883 28.4975 64.4917 28.9283 63.63 29.79L50 43.42L36.37 29.79C35.5083 28.9283 34.4117 28.4975 33.08 28.4975C31.7483 28.4975 30.6517 28.9283 29.79 29.79C28.9283 30.6517 28.4975 31.7483 28.4975 33.08C28.4975 34.4117 28.9283 35.5083 29.79 36.37L43.42 50L29.79 63.63C28.9283 64.4917 28.4975 65.5883 28.4975 66.92C28.4975 68.2517 28.9283 69.3483 29.79 70.21C30.6517 71.0717 31.7483 71.5025 33.08 71.5025C34.4117 71.5025 35.5083 71.0717 36.37 70.21L50 56.58ZM50 97C43.4983 97 37.3883 95.7662 31.67 93.2987C25.9517 90.8312 20.9775 87.4825 16.7475 83.2525C12.5175 79.0225 9.16875 74.0483 6.70125 68.33C4.23375 62.6117 3 56.5017 3 50C3 43.4983 4.23375 37.3883 6.70125 31.67C9.16875 25.9517 12.5175 20.9775 16.7475 16.7475C20.9775 12.5175 25.9517 9.16875 31.67 6.70125C37.3883 4.23375 43.4983 3 50 3C56.5017 3 62.6117 4.23375 68.33 6.70125C74.0483 9.16875 79.0225 12.5175 83.2525 16.7475C87.4825 20.9775 90.8312 25.9517 93.2987 31.67C95.7662 37.3883 97 43.4983 97 50C97 56.5017 95.7662 62.6117 93.2987 68.33C90.8312 74.0483 87.4825 79.0225 83.2525 83.2525C79.0225 87.4825 74.0483 90.8312 68.33 93.2987C62.6117 95.7662 56.5017 97 50 97Z" fill="#DF4F5F"/>
</g>
</svg>