<svg xmlns="http://www.w3.org/2000/svg" width="72" height="55" viewBox="0 0 72 55" fill="none">
<path d="M61.1559 16.4667C61.3706 16.4667 61.5853 16.4645 61.8011 16.4667C63.8427 16.4867 65.8887 16.4301 67.9235 16.5488C70.2011 16.682 71.9785 18.6989 71.9796 20.9577C71.9796 21.0132 71.9773 21.0687 71.9796 21.1242C72.0437 22.3663 71.9413 22.7781 70.4552 22.9424C68.9027 23.1144 67.7875 24.533 67.865 26.017C67.9505 27.6243 69.0893 28.7709 70.7227 28.8941C71.685 28.9663 71.9773 29.2749 71.9784 30.2195C71.9784 30.6446 71.9796 31.0708 71.9784 31.496C71.9762 32.2741 71.685 32.6215 70.897 32.6903C69.9774 32.7702 69.1893 33.0932 68.5879 33.7959C67.7852 34.7338 67.6391 35.8049 68.0989 36.9127C68.5497 38.0027 69.4175 38.6498 70.6148 38.7897C71.8121 38.9296 71.9796 39.0905 71.9796 40.2693C71.9796 40.6212 71.9807 40.9719 71.9796 41.3238C71.9762 42.0875 71.6592 42.4405 70.8835 42.5082C69.9246 42.5914 69.1061 42.9433 68.5058 43.7047C67.195 45.3664 67.9505 47.8028 69.9808 48.4488C70.3709 48.5732 70.8205 48.5498 71.1769 48.7263C71.4905 48.8817 71.9054 49.1959 71.9425 49.4822C72.1853 51.3426 71.7008 52.9732 70.1044 54.1375C69.3827 54.6648 68.5643 54.9689 67.6526 54.9811C67.4648 54.9833 67.2782 54.99 67.0905 54.99C46.4065 54.99 25.7213 54.9867 5.03732 54.9989C3.41511 55 2.0672 54.5016 1.04756 53.2329C0.167318 52.1373 -0.0451543 50.8619 0.0638923 49.5155C0.109984 48.9428 0.550667 48.6298 1.26116 48.5865C2.58658 48.5054 3.75012 47.5875 4.09862 46.3476C4.61575 44.5073 3.31843 42.6525 1.3792 42.4571C0.31009 42.3505 0.0492779 42.0686 0.0459053 41.0219C0.0447811 40.7078 0.0436569 40.3925 0.0459053 40.0784C0.0515262 39.1826 0.357306 38.843 1.26565 38.7531C2.01886 38.6787 2.68438 38.4156 3.22512 37.8906C4.17281 36.9715 4.45611 35.8804 3.99519 34.6428C3.54439 33.4296 2.61468 32.7835 1.33648 32.6426C0.360679 32.5349 0.0504021 32.2374 0.0447811 31.2817C0.0425327 30.9299 0.0425327 30.5791 0.0447811 30.2272C0.0504021 29.3115 0.386535 29.0329 1.31512 28.8731C1.91881 28.7698 2.56185 28.5623 3.05424 28.217C4.12223 27.4689 4.4415 26.2413 4.04466 25.0014C3.67929 23.8626 2.59895 23.0045 1.39718 22.8969C0.319084 22.8003 0.140337 22.535 0.0256698 21.4827C-0.291352 18.5779 2.17063 15.7829 4.83047 15.0681C15.0494 12.3175 25.239 9.45822 35.44 6.63884C43.1351 4.5121 50.8301 2.38203 58.5252 0.25529C59.3628 0.023302 60.2037 -0.112117 61.0693 0.123201C62.5959 0.538337 63.5796 1.72825 63.6729 3.29666C63.6875 3.53642 63.6842 3.77729 63.6842 4.01816C63.683 4.86841 63.4807 5.15146 62.6859 5.49222C61.1244 6.16155 60.1227 7.32704 59.6922 8.93985C59.5764 9.37275 59.582 9.86669 59.6573 10.3118C59.8293 11.3263 60.7242 11.8403 61.8742 11.6471C62.0957 11.6094 62.3093 11.5283 62.5307 11.4984C63.1625 11.4118 63.6482 11.7925 63.6752 12.4186C63.6999 12.9913 63.6943 13.5652 63.6763 14.139C63.6594 14.6607 63.3379 14.9438 62.8747 15.1702C62.2497 15.4755 61.6651 15.8606 61.0637 16.2103C61.094 16.2935 61.1244 16.3801 61.1559 16.4667ZM2.10205 50.4435C2.20211 51.9941 3.30943 52.9088 5.03057 52.9088C18.7806 52.9099 32.5306 52.9099 46.2817 52.9099C47.0023 52.9099 47.0034 52.9088 47.0034 52.1784C47.0034 41.1728 47.0034 30.1673 47.0034 19.1617C47.0034 18.4114 47.0023 18.4103 46.2322 18.4103C32.5564 18.4103 18.8817 18.4092 5.20595 18.4125C4.88892 18.4125 4.56516 18.4181 4.25488 18.4769C3.30719 18.6567 2.60906 19.1617 2.26843 20.0786C2.00088 20.799 2.03348 20.8534 2.76533 21.0931C4.79 21.758 6.19299 23.6616 6.24133 25.8061C6.28854 27.894 4.99123 29.7855 2.99578 30.548C2.88786 30.5891 2.78781 30.6524 2.61693 30.7401C4.91141 31.6369 6.18512 33.2242 6.22784 35.6051C6.27168 38.0282 4.88668 39.5656 2.68101 40.5557C5.03282 41.598 6.37173 43.2485 6.20648 45.7438C6.04347 48.2468 4.5438 49.7686 2.10205 50.4435ZM69.9009 50.4501C67.6604 49.8086 66.1844 48.4411 65.873 46.1467C65.5054 43.4406 66.9027 41.6735 69.3636 40.5457C67.1186 39.5678 65.8111 37.9894 65.8179 35.6007C65.8246 33.1898 67.1489 31.6169 69.4434 30.7278C69.2849 30.6446 69.2084 30.5958 69.1241 30.5625C66.9904 29.7255 65.7234 27.8063 65.801 25.5231C65.8685 23.5351 67.3547 21.6659 69.4277 21.0565C69.9156 20.9133 69.9527 20.6991 69.8414 20.3039C69.5153 19.1395 68.4755 18.4158 67.0579 18.4125C64.0259 18.4047 60.9928 18.4103 57.9609 18.4092C55.282 18.4092 52.6041 18.4092 49.9252 18.4092C49.1169 18.4092 49.1158 18.4103 49.1158 19.1873C49.1158 30.1728 49.1158 41.1584 49.1158 52.144C49.1158 52.9077 49.1169 52.9088 49.8678 52.9088C55.5439 52.9088 61.2188 52.9088 66.8949 52.9077C67.1568 52.9077 67.421 52.9066 67.6795 52.8766C68.9465 52.7278 69.8717 51.7322 69.9009 50.4501ZM8.39078 16.3057C8.39415 16.359 8.39865 16.4123 8.40202 16.4656C8.63136 16.4656 8.85957 16.4656 9.08891 16.4656C22.7051 16.4656 36.3213 16.4656 49.9375 16.4656C52.3725 16.4656 54.8087 16.4367 57.2425 16.4822C58.0171 16.4967 58.5421 16.3435 59.0064 15.6586C59.4212 15.0459 60.0845 14.5975 60.641 14.078C60.741 13.9848 60.8534 13.9026 61.0131 13.7716C60.8579 13.7184 60.777 13.6817 60.6916 13.6617C58.2892 13.0823 57.1537 11.5106 57.482 9.09636C57.7934 6.80867 59.1244 5.1792 61.0704 3.99374C61.6156 3.66185 61.6898 3.4676 61.4436 2.88486C61.2256 2.37093 60.822 2.08233 60.2666 2.09898C59.8035 2.1123 59.3302 2.16891 58.885 2.29101C53.4945 3.77174 48.1085 5.26578 42.7225 6.75983C32.2934 9.6569 21.8642 12.554 11.4351 15.4511C10.4188 15.733 9.4048 16.0205 8.39078 16.3057Z" fill="black"/>
<path d="M2.10156 50.4435C4.54218 49.7686 6.04298 48.2468 6.20824 45.7416C6.37237 43.2463 5.03346 41.5958 2.68277 40.5535C4.88731 39.5645 6.27231 38.0271 6.2296 35.6029C6.18688 33.222 4.91429 31.6347 2.61869 30.7378C2.78957 30.6502 2.88962 30.588 2.99754 30.5458C4.99298 29.7833 6.2903 27.8907 6.24309 25.8039C6.19475 23.6594 4.79175 21.7569 2.76708 21.0909C2.03524 20.8501 2.00263 20.7968 2.27019 20.0764C2.61082 19.1595 3.30894 18.6545 4.25664 18.4747C4.56692 18.4158 4.89068 18.4103 5.20771 18.4103C18.8835 18.407 32.5582 18.4081 46.234 18.4081C47.004 18.4081 47.0052 18.4092 47.0052 19.1595C47.0052 30.1651 47.0052 41.1706 47.0052 52.1762C47.0052 52.9066 47.004 52.9077 46.2834 52.9077C32.5334 52.9077 18.7834 52.9088 5.03233 52.9066C3.30894 52.9088 2.20274 51.9941 2.10156 50.4435ZM24.491 34.6428C20.0133 34.6428 15.5368 34.6428 11.0591 34.6439C10.8343 34.6439 10.6083 34.6406 10.3857 34.6683C9.82813 34.7371 9.48413 35.089 9.44816 35.6018C9.41218 36.1146 9.69548 36.542 10.2171 36.6863C10.4644 36.754 10.7342 36.764 10.9928 36.764C19.9661 36.7673 28.9394 36.7673 37.9127 36.7673C38.0442 36.7673 38.1758 36.7729 38.3062 36.7629C38.9852 36.714 39.4405 36.2867 39.4483 35.6962C39.4573 35.0946 39.0234 34.6905 38.3163 34.6494C38.1297 34.6383 37.9419 34.6439 37.7542 34.6439C33.3339 34.6428 28.9124 34.6428 24.491 34.6428ZM24.4853 48.9994C28.9619 48.9994 33.4373 48.9994 37.9138 48.9983C38.1387 48.9983 38.3657 49.0061 38.5861 48.9716C39.0796 48.8951 39.4225 48.501 39.4483 48.0171C39.4753 47.5009 39.1605 47.0736 38.6423 46.9659C38.4253 46.9204 38.196 46.9226 37.9723 46.9226C28.945 46.9204 19.9178 46.9204 10.8905 46.9226C10.6848 46.9226 10.4757 46.9215 10.2756 46.9581C9.74944 47.0558 9.43354 47.4609 9.44478 47.9882C9.45827 48.6298 9.90908 48.9961 10.7196 48.9972C15.3086 49.0005 19.8964 48.9994 24.4853 48.9994ZM24.4213 40.7855C19.9459 40.7855 15.4705 40.7855 10.9939 40.7866C10.7511 40.7866 10.5015 40.7777 10.2666 40.8254C9.76855 40.9264 9.492 41.2494 9.44816 41.7501C9.40544 42.2473 9.69211 42.6736 10.1778 42.7946C10.4273 42.8567 10.696 42.8678 10.9557 42.8678C19.9447 42.8711 28.9338 42.8711 37.9217 42.8689C38.1634 42.8689 38.4118 42.8645 38.6457 42.8123C39.2471 42.678 39.5608 42.133 39.4011 41.5425C39.2572 41.0064 38.8829 40.7877 38.0723 40.7866C33.5227 40.7844 28.972 40.7855 24.4213 40.7855ZM20.5484 28.4646C17.3456 28.4646 14.1439 28.4635 10.9411 28.4657C10.7174 28.4657 10.488 28.459 10.2699 28.5001C9.75281 28.5978 9.43129 29.0185 9.44366 29.5379C9.45603 30.0485 9.81015 30.4526 10.3284 30.5281C10.4937 30.5525 10.6645 30.548 10.8332 30.548C17.2939 30.5491 23.7557 30.5491 30.2165 30.548C30.3851 30.548 30.556 30.5525 30.7212 30.5258C31.2271 30.447 31.6015 30.023 31.6161 29.5324C31.6307 29.0451 31.2777 28.5967 30.7718 28.5001C30.5537 28.4579 30.3244 28.4657 30.1007 28.4646C26.9159 28.4635 23.7321 28.4646 20.5484 28.4646ZM17.7346 22.2942C15.4896 22.2942 13.2434 22.293 10.9984 22.2964C10.7556 22.2964 10.5094 22.2997 10.2722 22.3408C9.74832 22.4296 9.43467 22.8325 9.44591 23.3653C9.45715 23.8637 9.77642 24.2488 10.2767 24.331C10.515 24.3698 10.7612 24.3743 11.0029 24.3743C15.4941 24.3765 19.9841 24.3765 24.4752 24.3743C24.7181 24.3743 24.9643 24.3709 25.2015 24.3288C25.7107 24.2377 26.0435 23.8093 26.0322 23.2987C26.0176 22.6593 25.5814 22.3019 24.7518 22.2986C22.4135 22.2897 20.074 22.2953 17.7346 22.2942Z" fill="#E9F3FF"/>
<path d="M69.9004 50.4502C69.8701 51.7311 68.946 52.7279 67.679 52.8766C67.4193 52.9077 67.1551 52.9077 66.8943 52.9077C61.2183 52.9099 55.5434 52.9088 49.8673 52.9088C49.1175 52.9088 49.1152 52.9077 49.1152 52.144C49.1152 41.1584 49.1152 30.1729 49.1152 19.1873C49.1152 18.4103 49.1164 18.4092 49.9247 18.4092C52.6036 18.4092 55.2814 18.4092 57.9604 18.4092C60.9923 18.4092 64.0254 18.4036 67.0573 18.4125C68.4749 18.4158 69.5137 19.1396 69.8408 20.3039C69.9521 20.7002 69.915 20.9133 69.4271 21.0565C67.3541 21.6659 65.8679 23.5351 65.8005 25.5231C65.7229 27.8064 66.9899 29.7255 69.1236 30.5625C69.2068 30.5947 69.2832 30.6446 69.4429 30.7278C67.1473 31.617 65.8241 33.1898 65.8174 35.6007C65.8106 37.9894 67.118 39.5678 69.3631 40.5457C66.9011 41.6735 65.5048 43.4406 65.8724 46.1467C66.185 48.4411 67.661 49.8097 69.9004 50.4502Z" fill="#2785FF"/>
<path d="M8.39062 16.3058C9.40577 16.0205 10.4198 15.733 11.4349 15.45C21.8641 12.5529 32.2932 9.65581 42.7223 6.76096C48.1083 5.2658 53.4943 3.77175 58.8848 2.29214C59.33 2.17004 59.8044 2.11343 60.2665 2.10011C60.8218 2.08346 61.2265 2.37206 61.4435 2.88598C61.6897 3.46873 61.6155 3.66298 61.0703 3.99486C59.1243 5.18033 57.7932 6.80869 57.4818 9.09749C57.1536 11.5128 58.289 13.0835 60.6914 13.6629C60.7768 13.6829 60.8578 13.7195 61.0129 13.7728C60.8522 13.9037 60.7409 13.9859 60.6408 14.0791C60.0843 14.5975 59.4222 15.047 59.0062 15.6597C58.542 16.3446 58.017 16.4978 57.2424 16.4834C54.8085 16.4367 52.3724 16.4667 49.9374 16.4667C36.3212 16.4667 22.705 16.4667 9.08875 16.4667C8.85941 16.4667 8.6312 16.4667 8.40187 16.4667C8.39849 16.4134 8.394 16.359 8.39062 16.3058Z" fill="#E9F3FF"/>
<path d="M24.4912 34.6428C28.9126 34.6428 33.3329 34.6428 37.7544 34.6428C37.9421 34.6428 38.1299 34.6373 38.3165 34.6484C39.0236 34.6894 39.4575 35.0935 39.4486 35.6951C39.4407 36.2856 38.9854 36.7129 38.3064 36.7618C38.176 36.7718 38.0444 36.7662 37.9129 36.7662C28.9396 36.7662 19.9663 36.7673 10.993 36.7629C10.7333 36.7629 10.4635 36.754 10.2173 36.6852C9.69569 36.5409 9.41239 36.1135 9.44837 35.6007C9.48434 35.0868 9.82947 34.7349 10.3859 34.6672C10.6074 34.6395 10.8345 34.6428 11.0593 34.6428C15.537 34.6428 20.0135 34.6428 24.4912 34.6428Z" fill="black"/>
<path d="M24.4862 48.9994C19.8972 48.9994 15.3094 49.0005 10.7204 48.9983C9.90989 48.9983 9.45909 48.632 9.4456 47.9893C9.43436 47.4621 9.75026 47.058 10.2764 46.9592C10.4765 46.9215 10.6867 46.9237 10.8913 46.9237C19.9186 46.9226 28.9458 46.9226 37.9731 46.9237C38.1968 46.9237 38.4261 46.9215 38.6431 46.967C39.1614 47.0747 39.4761 47.5031 39.4492 48.0182C39.4233 48.5021 39.0804 48.8951 38.5869 48.9728C38.3666 49.0072 38.1384 48.9983 37.9146 48.9994C33.4381 48.9994 28.9627 48.9994 24.4862 48.9994Z" fill="black"/>
<path d="M24.4215 40.7855C28.9722 40.7855 33.523 40.7844 38.0737 40.7866C38.8842 40.7866 39.2586 41.0064 39.4025 41.5425C39.561 42.133 39.2485 42.678 38.647 42.8123C38.4132 42.8645 38.1647 42.8689 37.923 42.8689C28.934 42.8712 19.945 42.8723 10.957 42.8678C10.6974 42.8678 10.4298 42.8556 10.1791 42.7946C9.69345 42.6747 9.40678 42.2485 9.4495 41.7501C9.49222 41.2495 9.7699 40.9254 10.2679 40.8255C10.5029 40.7777 10.7524 40.7866 10.9953 40.7866C15.4707 40.7855 19.9461 40.7855 24.4215 40.7855Z" fill="black"/>
<path d="M20.5486 28.4646C23.7323 28.4646 26.916 28.4635 30.0998 28.4657C30.3235 28.4657 30.5528 28.4591 30.7709 28.5012C31.2768 28.5978 31.6298 29.0462 31.6152 29.5335C31.6006 30.0241 31.2262 30.4482 30.7203 30.527C30.5551 30.5525 30.3842 30.5492 30.2155 30.5492C23.7548 30.5503 17.293 30.5503 10.8322 30.5492C10.6636 30.5492 10.4927 30.5536 10.3275 30.5292C9.80921 30.4526 9.45509 30.0497 9.44273 29.5391C9.43036 29.0196 9.75188 28.5989 10.269 28.5012C10.4871 28.4602 10.7164 28.4668 10.9402 28.4668C14.1441 28.4635 17.3469 28.4646 20.5486 28.4646Z" fill="black"/>
<path d="M17.7352 22.2953C20.0747 22.2953 22.413 22.2897 24.7525 22.2986C25.5821 22.3019 26.0183 22.6593 26.0329 23.2987C26.0442 23.8093 25.7114 24.2377 25.2021 24.3288C24.9649 24.3709 24.7187 24.3743 24.4759 24.3743C19.9848 24.3765 15.4947 24.3765 11.0036 24.3743C10.7608 24.3743 10.5157 24.3698 10.2774 24.331C9.77709 24.2488 9.45782 23.8637 9.44658 23.3653C9.43534 22.8325 9.74899 22.4296 10.2729 22.3408C10.5112 22.3008 10.7574 22.2975 10.9991 22.2964C13.2452 22.293 15.4902 22.2942 17.7352 22.2953Z" fill="black"/>
</svg>