<svg xmlns="http://www.w3.org/2000/svg" width="29" height="24" viewBox="0 0 29 24" fill="none">
<g clip-path="url(#clip0_83_431)">
<path d="M3.78925 11.4323C3.63419 11.5268 3.53775 11.5862 3.44036 11.6447C2.0817 12.4629 0.410075 11.8126 0.052681 10.3269C-0.146817 9.49737 0.229487 8.63277 1.02559 8.12463C1.95406 7.53142 2.8726 6.92157 3.82754 6.36932C4.27665 6.10963 4.4492 5.82743 4.42745 5.31749C4.37876 4.17159 4.41091 3.02299 4.4128 1.87529C4.41374 1.1025 4.94983 0.594361 5.76201 0.593011C6.33734 0.592111 6.91219 0.592111 7.48752 0.593011C8.28173 0.594361 8.81877 1.1016 8.82823 1.86358C8.83343 2.28306 8.82917 2.70253 8.82917 3.16746C8.92845 3.1103 8.99936 3.07294 9.06649 3.03064C10.4426 2.15748 11.816 1.28073 13.195 0.411629C14.0601 -0.133866 14.9408 -0.137467 15.804 0.408929C19.8573 2.97348 23.9073 5.54253 27.9564 8.11293C28.9444 8.73989 29.2735 9.87093 28.7624 10.835C28.1469 11.9962 26.7291 12.3468 25.5416 11.6312C25.4513 11.5767 25.3615 11.5223 25.2145 11.4336C25.2145 11.5911 25.2145 11.6915 25.2145 11.7919C25.2145 14.8069 25.2093 17.822 25.2183 20.8371C25.2206 21.7112 24.9559 22.4772 24.3096 23.1055C23.7405 23.6591 23.0446 23.9593 22.2267 23.9908C22.1246 23.9949 22.022 23.998 21.9194 23.998C16.9722 23.9985 12.0244 23.9944 7.07718 24.0016C6.12035 24.003 5.29683 23.7275 4.63877 23.0569C4.02657 22.4331 3.7831 21.6824 3.78594 20.8349C3.79492 17.8198 3.78925 14.8047 3.78925 11.7892C3.78925 11.692 3.78925 11.5961 3.78925 11.4323ZM18.2836 22.8021C18.3933 22.8021 18.4708 22.8021 18.5483 22.8021C19.6668 22.8021 20.7858 22.803 21.9043 22.8017C23.1727 22.8003 23.956 22.0564 23.956 20.8515C23.9565 17.5286 23.9541 14.2056 23.9617 10.8832C23.9622 10.6842 23.8932 10.5767 23.7253 10.4704C20.722 8.56931 17.722 6.66367 14.7243 4.75399C14.5669 4.65362 14.4548 4.64012 14.2879 4.74634C11.278 6.66547 8.26424 8.57876 5.24861 10.4889C5.10348 10.5807 5.04107 10.6743 5.04155 10.8485C5.04817 14.1939 5.0458 17.5394 5.04675 20.8844C5.04722 22.051 5.83292 22.7999 7.05685 22.8012C8.19144 22.8026 9.32603 22.8017 10.4601 22.8012C10.5429 22.8012 10.6256 22.794 10.7192 22.79C10.7192 22.6739 10.7192 22.5848 10.7192 22.4952C10.7192 20.0049 10.7187 17.5146 10.7201 15.0243C10.7201 14.9051 10.7216 14.7826 10.7461 14.6665C10.9376 13.7686 11.6883 13.2006 12.7028 13.1957C13.9003 13.1898 15.0978 13.1867 16.2952 13.2002C16.5581 13.2033 16.8318 13.2483 17.0809 13.3293C17.825 13.5715 18.2812 14.2574 18.2822 15.0972C18.284 17.565 18.2826 20.0328 18.2826 22.5006C18.2836 22.5902 18.2836 22.6788 18.2836 22.8021ZM1.26291 9.88804C1.27472 10.2458 1.43688 10.5199 1.77252 10.691C2.18003 10.8985 2.53648 10.7805 2.89576 10.5519C6.60822 8.19034 10.3245 5.83463 14.0398 3.47757C14.3962 3.25163 14.6104 3.25343 14.973 3.48342C17.4955 5.08435 20.0176 6.68528 22.5406 8.28576C23.7858 9.07564 25.0292 9.86778 26.2781 10.6518C26.6762 10.9016 27.217 10.8111 27.5172 10.4682C27.8217 10.1207 27.8155 9.64184 27.4884 9.29798C27.3896 9.19402 27.2619 9.1121 27.1385 9.03379C23.1675 6.51425 19.1955 3.99696 15.224 1.47877C14.6397 1.10835 14.3607 1.1097 13.7812 1.47742C10.7537 3.3979 7.72579 5.31659 4.69786 7.23617C3.72779 7.85098 2.75961 8.46804 1.78718 9.08015C1.47895 9.27413 1.28276 9.52527 1.26291 9.88804ZM17.0095 22.7868C17.0157 22.7072 17.0251 22.6415 17.0251 22.5758C17.0256 20.0931 17.0266 17.6105 17.0247 15.1283C17.0242 14.6332 16.7907 14.4127 16.2744 14.4118C15.0926 14.41 13.9112 14.41 12.7293 14.4118C12.2069 14.4127 11.9781 14.6287 11.9781 15.1238C11.9767 17.5988 11.9772 20.0738 11.9781 22.5492C11.9781 22.628 11.9885 22.7067 11.9942 22.7868C13.6795 22.7868 15.3379 22.7868 17.0095 22.7868ZM5.69819 5.12125C5.73128 5.12125 5.74972 5.1271 5.76012 5.12035C6.33025 4.75849 6.90085 4.39753 7.46672 4.03026C7.51683 3.99786 7.56411 3.92224 7.56458 3.86598C7.57167 3.22867 7.57215 2.59091 7.56364 1.9536C7.56316 1.90544 7.48138 1.81768 7.436 1.81677C6.86208 1.80732 6.28817 1.81047 5.69819 1.81047C5.69819 2.92712 5.69819 4.02396 5.69819 5.12125Z" fill="black"/>
<path d="M18.2841 22.8019C18.2841 22.6786 18.2841 22.5895 18.2841 22.5008C18.2841 20.033 18.285 17.5652 18.2836 15.0974C18.2831 14.2576 17.8269 13.5717 17.0823 13.3295C16.8332 13.2485 16.56 13.2031 16.2966 13.2004C15.0992 13.1869 13.9017 13.19 12.7043 13.1959C11.6898 13.2008 10.939 13.7688 10.7476 14.6667C10.723 14.7828 10.7216 14.9053 10.7216 15.0245C10.7202 17.5148 10.7206 20.0051 10.7206 22.4954C10.7206 22.5845 10.7206 22.6741 10.7206 22.7902C10.627 22.7947 10.5443 22.8014 10.4616 22.8014C9.32698 22.8023 8.19239 22.8028 7.05828 22.8014C5.83434 22.8001 5.04864 22.0512 5.04817 20.8846C5.04723 17.5391 5.04959 14.1937 5.04297 10.8487C5.0425 10.675 5.1049 10.5814 5.25003 10.4891C8.26567 8.5785 11.2794 6.66522 14.2894 4.74653C14.4562 4.64031 14.5683 4.65381 14.7257 4.75418C17.7234 6.66342 20.7234 8.5695 23.7268 10.4706C23.8946 10.5769 23.9636 10.6849 23.9631 10.8834C23.9556 14.2063 23.9579 17.5292 23.9575 20.8517C23.9575 22.0566 23.1741 22.8005 21.9057 22.8019C20.7872 22.8028 19.6682 22.8023 18.5497 22.8023C18.4713 22.8019 18.3937 22.8019 18.2841 22.8019Z" fill="#2984FF"/>
<path d="M1.2627 9.88778C1.28255 9.52502 1.47921 9.27387 1.78744 9.07989C2.7594 8.46823 3.72805 7.85072 4.69813 7.23592C7.72605 5.31633 10.7544 3.39764 13.7814 1.47716C14.361 1.10944 14.6399 1.10809 15.2242 1.47851C19.1958 3.9967 23.1673 6.51444 27.1379 9.03353C27.2617 9.11184 27.3889 9.19421 27.4877 9.29773C27.8153 9.64159 27.821 10.1205 27.5165 10.4679C27.2163 10.8109 26.6755 10.9014 26.2775 10.6516C25.0285 9.86753 23.7852 9.07539 22.54 8.2855C20.0174 6.68502 17.4948 5.08409 14.9723 3.48316C14.6097 3.25317 14.3955 3.25137 14.0391 3.47731C10.3238 5.83437 6.60754 8.19008 2.89508 10.5516C2.53579 10.7803 2.17982 10.8982 1.77184 10.6907C1.43619 10.5197 1.27451 10.2456 1.2627 9.88778Z" fill="white"/>
<path d="M17.0097 22.7866C15.338 22.7866 13.6801 22.7866 11.9943 22.7866C11.9886 22.706 11.9782 22.6277 11.9782 22.5489C11.9773 20.074 11.9773 17.599 11.9782 15.1235C11.9787 14.6285 12.2071 14.4124 12.7294 14.4115C13.9113 14.4097 15.0927 14.4097 16.2745 14.4115C16.7908 14.4124 17.0243 14.6325 17.0248 15.128C17.0272 17.6107 17.0262 20.0933 17.0253 22.5755C17.0253 22.6412 17.0158 22.7069 17.0097 22.7866Z" fill="#E9F3FF"/>
<path d="M5.69824 5.121C5.69824 4.02371 5.69824 2.92686 5.69824 1.81022C6.28823 1.81022 6.86214 1.80707 7.43605 1.81652C7.48143 1.81742 7.56322 1.90519 7.56369 1.95334C7.5722 2.59066 7.57173 3.22842 7.56464 3.86573C7.56416 3.92199 7.51689 3.9976 7.46678 4.03001C6.9009 4.39772 6.3303 4.75869 5.76017 5.1201C5.74977 5.12685 5.73133 5.121 5.69824 5.121Z" fill="white"/>
</g>
<defs>
<clipPath id="clip0_83_431">
<rect width="29" height="24" fill="white"/>
</clipPath>
</defs>
</svg>