<svg width="29" height="19" viewBox="0 0 29 19" fill="none" xmlns="http://www.w3.org/2000/svg">
<path fill-rule="evenodd" clip-rule="evenodd" d="M13.9618 10.8131H27.7598C28.398 10.8131 28.916 10.2951 28.916 9.65686C28.916 9.01861 28.398 8.50061 27.7598 8.50061H13.9618C13.3236 8.50061 12.8056 9.01861 12.8056 9.65686C12.8056 10.2951 13.3236 10.8131 13.9618 10.8131" fill="#1946A3"/>
<mask id="mask0_126_93" style="mask-type:luminance" maskUnits="userSpaceOnUse" x="0" y="0" width="16" height="19">
<path fill-rule="evenodd" clip-rule="evenodd" d="M15.1172 0.792282H0.568479V18.523H15.1172V0.792282Z" fill="white"/>
</mask>
<g mask="url(#mask0_126_93)">
<path fill-rule="evenodd" clip-rule="evenodd" d="M12.8047 4.04273V15.2707L3.89385 9.65748L12.8047 4.04273ZM13.9609 18.5236C14.1536 18.5236 14.3448 18.4743 14.519 18.3787C14.889 18.1752 15.1172 17.7882 15.1172 17.3674V1.94761C15.1172 1.52519 14.889 1.13823 14.519 0.934732C14.1506 0.732774 13.6989 0.745107 13.3458 0.968649L1.10806 8.67852C0.770438 8.89127 0.568479 9.25973 0.568479 9.65748C0.568479 10.0537 0.770438 10.4237 1.10806 10.6349L13.3458 18.3448C13.5324 18.4635 13.7466 18.5236 13.9609 18.5236V18.5236Z" fill="#1946A3"/>
</g>
</svg>
