<svg xmlns="http://www.w3.org/2000/svg" viewBox="0 0 265 146" fill="none">
<path d="M106.136 115.812L97.2502 132.788L88.3612 115.812H81.7811V145.157H87.9863V126.671L95.4073 140.756H98.7604L106.178 126.671V145.157H112.383V115.812H106.136Z" fill="white"/>
<path d="M125.501 139.582V132.666H138.581V127.466H125.501V121.387H140.676V115.812H119.089V145.157H141.096V139.582H125.501Z" fill="white"/>
<path d="M157.151 127.592C153.044 125.998 151.867 124.95 151.867 123.233C151.867 121.934 153.083 120.592 155.557 120.592C159.204 120.592 161.636 123.276 161.636 123.276L165.409 119.166C165.409 119.166 161.846 115.392 155.472 115.392C149.313 115.392 145.287 118.955 145.287 123.735C145.287 127.971 148.223 130.567 152.288 132.161C157.529 134.256 158.952 135.598 158.952 137.483C158.952 139.12 157.445 140.377 155.266 140.377C150.697 140.377 147.466 137.066 147.466 137.066L143.693 141.173C143.693 141.173 147.593 145.577 154.929 145.577C161.341 145.577 165.535 141.677 165.535 136.772C165.535 131.951 161.509 129.309 157.151 127.592Z" fill="white"/>
<path d="M190.937 115.812V135.055L177.395 115.812H170.773V145.157H177.021V125.413L190.937 145.157H197.185V115.812H190.937Z" fill="white"/>
<path d="M218.936 115.812H212.524L200.618 145.157H207.367L209.714 138.993H221.41L223.757 145.157H230.842L218.936 115.812ZM211.477 133.923L215.583 123.191L219.609 133.923H211.477Z" fill="white"/>
<path d="M255.449 121.387V115.812H234.279V145.157H240.691V134.172H253.354V128.766H240.691V121.387H255.449Z" fill="white"/>
<path d="M205.202 67.2608C205.545 67.1207 205.899 66.9981 206.249 66.8894C205.895 66.9946 205.545 67.1207 205.202 67.2608ZM208.39 66.3779C208.779 66.3148 209.168 66.2728 209.564 66.2377C209.168 66.2658 208.779 66.3113 208.39 66.3779ZM210.152 66.2027C210.492 66.1922 210.832 66.1887 211.172 66.1992C210.832 66.1852 210.489 66.1887 210.152 66.2027ZM214.89 66.7948C215.313 66.921 215.734 67.0646 216.144 67.2258C215.734 67.0611 215.313 66.914 214.89 66.7948ZM220.944 70.1865C220.727 70.0218 220.51 69.8571 220.292 69.6925C220.257 69.6644 220.222 69.6399 220.187 69.6154C220.096 69.5453 220.005 69.4787 219.914 69.4086C219.788 69.314 219.662 69.2194 219.536 69.1248C219.525 69.1178 219.514 69.1108 219.504 69.1038C219.514 69.1143 219.525 69.1213 219.536 69.1284C219.907 69.4087 220.275 69.6855 220.639 69.9622C220.804 70.0849 220.969 70.211 221.13 70.3301C221.067 70.2811 221.004 70.2355 220.944 70.1865ZM221.739 70.7891C221.669 70.7366 221.599 70.684 221.529 70.635C221.599 70.6875 221.669 70.7436 221.739 70.7961C221.823 70.7121 221.911 70.6315 221.999 70.5474C221.911 70.6245 221.823 70.7085 221.739 70.7891ZM222.261 70.3126C222.654 69.9552 223.053 69.6294 223.453 69.3246C223.053 69.6224 222.654 69.9517 222.261 70.3126ZM224.809 68.3996C224.763 68.4276 224.718 68.4556 224.672 68.4872C224.763 68.4276 224.854 68.3715 224.945 68.319C224.9 68.3435 224.854 68.3715 224.809 68.3996ZM244.209 71.8157C244.503 72.1976 244.78 72.5971 245.043 73.0035C244.787 72.5971 244.51 72.1976 244.209 71.8157ZM245.404 88.4271C245.625 88.0487 245.824 87.6668 246.003 87.2708C245.817 87.6668 245.618 88.0487 245.404 88.4271ZM246.262 86.6787C246.43 86.2828 246.574 85.8799 246.697 85.4699C246.567 85.8799 246.423 86.2828 246.262 86.6787ZM114.906 77.4323C114.804 77.4533 114.713 77.4813 114.622 77.5164C114.748 77.4743 114.875 77.4393 115.004 77.4147C114.969 77.4183 114.938 77.4253 114.906 77.4323ZM115.694 77.3587C115.526 77.3482 115.365 77.3587 115.197 77.3832C115.39 77.3587 115.586 77.3517 115.778 77.3657C115.75 77.3622 115.722 77.3587 115.694 77.3587ZM115.807 77.3657H115.778C115.831 77.3692 115.884 77.3727 115.94 77.3797C115.894 77.3727 115.849 77.3692 115.807 77.3657ZM116.227 77.4253C116.206 77.4218 116.185 77.4147 116.16 77.4147C116.22 77.4253 116.28 77.4393 116.336 77.4533C116.301 77.4428 116.265 77.4358 116.227 77.4253ZM116.444 77.4813C116.413 77.4708 116.385 77.4638 116.353 77.4568C116.416 77.4743 116.476 77.4918 116.535 77.5129C116.507 77.5024 116.476 77.4918 116.444 77.4813ZM116.721 77.5759C116.714 77.5759 116.714 77.5759 116.714 77.5759C116.746 77.5864 116.774 77.6005 116.802 77.6145C116.777 77.6005 116.749 77.5864 116.721 77.5759ZM117.11 82.9963C116.262 83.4903 115.267 83.5183 114.423 83.1609V83.1644C115.267 83.5218 116.258 83.4938 117.11 82.9998C117.173 82.9612 117.229 82.9262 117.285 82.8841C117.229 82.9227 117.169 82.9612 117.11 82.9963Z" fill="white"/>
<path d="M133.679 35.8564C134.517 37.2929 134.03 39.1464 132.593 39.9838C131.15 40.8212 129.296 40.3272 128.459 38.8906C127.621 37.4471 128.108 35.6006 129.552 34.7632C130.988 33.9258 132.842 34.4128 133.679 35.8564Z" fill="white"/>
<path d="M100.688 36.8728C99.8504 35.4362 100.334 33.5757 101.774 32.7383C103.21 31.9009 105.071 32.3949 105.908 33.8385C106.742 35.2715 106.259 37.1285 104.815 37.9659C103.379 38.8033 101.525 38.3093 100.688 36.8728Z" fill="white"/>
<path d="M225.506 10.0337V13.6041H223.947C223.582 13.6041 223.285 13.5095 223.053 13.3238C222.826 13.1346 222.658 12.8998 222.556 12.6195C222.507 12.4899 222.472 12.3602 222.447 12.2271C222.426 12.0939 222.416 11.9608 222.416 11.8276C222.416 11.6069 222.444 11.3932 222.507 11.1795C222.57 10.9657 222.661 10.773 222.787 10.6013C222.917 10.4296 223.074 10.293 223.264 10.1879C223.456 10.0863 223.684 10.0337 223.947 10.0337H225.506Z" fill="white"/>
<path d="M254.16 10.0372C253.939 10.0337 253.775 10.0302 253.673 10.0302C253.568 10.0267 253.505 10.0232 253.484 10.0232H253.442C253.249 10.0232 253.063 10.0688 252.881 10.1564C252.699 10.244 252.534 10.3561 252.391 10.4962C252.25 10.6364 252.135 10.7975 252.051 10.9797C251.967 11.1619 251.925 11.3511 251.925 11.5404V13.6041H255.123V10.0512C254.703 10.0442 254.384 10.0407 254.16 10.0372ZM254.16 10.0372C253.939 10.0337 253.775 10.0302 253.673 10.0302C253.568 10.0267 253.505 10.0232 253.484 10.0232H253.442C253.249 10.0232 253.063 10.0688 252.881 10.1564C252.699 10.244 252.534 10.3561 252.391 10.4962C252.25 10.6364 252.135 10.7975 252.051 10.9797C251.967 11.1619 251.925 11.3511 251.925 11.5404V13.6041H255.123V10.0512C254.703 10.0442 254.384 10.0407 254.16 10.0372ZM254.16 10.0372C253.939 10.0337 253.775 10.0302 253.673 10.0302C253.568 10.0267 253.505 10.0232 253.484 10.0232H253.442C253.249 10.0232 253.063 10.0688 252.881 10.1564C252.699 10.244 252.534 10.3561 252.391 10.4962C252.25 10.6364 252.135 10.7975 252.051 10.9797C251.967 11.1619 251.925 11.3511 251.925 11.5404V13.6041H255.123V10.0512C254.703 10.0442 254.384 10.0407 254.16 10.0372ZM254.16 10.0372C253.939 10.0337 253.775 10.0302 253.673 10.0302C253.568 10.0267 253.505 10.0232 253.484 10.0232H253.442C253.249 10.0232 253.063 10.0688 252.881 10.1564C252.699 10.244 252.534 10.3561 252.391 10.4962C252.25 10.6364 252.135 10.7975 252.051 10.9797C251.967 11.1619 251.925 11.3511 251.925 11.5404V13.6041H255.123V10.0512C254.703 10.0442 254.384 10.0407 254.16 10.0372ZM254.16 10.0372C253.939 10.0337 253.775 10.0302 253.673 10.0302C253.568 10.0267 253.505 10.0232 253.484 10.0232H253.442C253.249 10.0232 253.063 10.0688 252.881 10.1564C252.699 10.244 252.534 10.3561 252.391 10.4962C252.25 10.6364 252.135 10.7975 252.051 10.9797C251.967 11.1619 251.925 11.3511 251.925 11.5404V13.6041H255.123V10.0512C254.703 10.0442 254.384 10.0407 254.16 10.0372ZM254.16 10.0372C253.939 10.0337 253.775 10.0302 253.673 10.0302C253.568 10.0267 253.505 10.0232 253.484 10.0232H253.442C253.249 10.0232 253.063 10.0688 252.881 10.1564C252.699 10.244 252.534 10.3561 252.391 10.4962C252.25 10.6364 252.135 10.7975 252.051 10.9797C251.967 11.1619 251.925 11.3511 251.925 11.5404V13.6041H255.123V10.0512C254.703 10.0442 254.384 10.0407 254.16 10.0372ZM254.16 10.0372C253.939 10.0337 253.775 10.0302 253.673 10.0302C253.568 10.0267 253.505 10.0232 253.484 10.0232H253.442C253.249 10.0232 253.063 10.0688 252.881 10.1564C252.699 10.244 252.534 10.3561 252.391 10.4962C252.25 10.6364 252.135 10.7975 252.051 10.9797C251.967 11.1619 251.925 11.3511 251.925 11.5404V13.6041H255.123V10.0512C254.703 10.0442 254.384 10.0407 254.16 10.0372ZM254.16 10.0372C253.939 10.0337 253.775 10.0302 253.673 10.0302C253.568 10.0267 253.505 10.0232 253.484 10.0232H253.442C253.249 10.0232 253.063 10.0688 252.881 10.1564C252.699 10.244 252.534 10.3561 252.391 10.4962C252.25 10.6364 252.135 10.7975 252.051 10.9797C251.967 11.1619 251.925 11.3511 251.925 11.5404V13.6041H255.123V10.0512C254.703 10.0442 254.384 10.0407 254.16 10.0372ZM254.16 10.0372C253.939 10.0337 253.775 10.0302 253.673 10.0302C253.568 10.0267 253.505 10.0232 253.484 10.0232H253.442C253.249 10.0232 253.063 10.0688 252.881 10.1564C252.699 10.244 252.534 10.3561 252.391 10.4962C252.25 10.6364 252.135 10.7975 252.051 10.9797C251.967 11.1619 251.925 11.3511 251.925 11.5404V13.6041H255.123V10.0512C254.703 10.0442 254.384 10.0407 254.16 10.0372Z" fill="white"/>
<path d="M247.352 81.6156C247.345 81.8013 247.335 81.9835 247.317 82.1727C247.31 82.3093 247.3 82.4495 247.279 82.5931C247.271 82.6667 247.268 82.7368 247.257 82.8103C247.243 82.933 247.229 83.0591 247.205 83.1817C247.201 83.2483 247.191 83.3079 247.177 83.3744C247.163 83.5146 247.135 83.6583 247.107 83.7984C247.1 83.8299 247.096 83.858 247.089 83.893C247.058 84.0542 247.023 84.2189 246.984 84.387C246.907 84.7514 246.805 85.1123 246.697 85.4697C246.574 85.8797 246.431 86.2826 246.262 86.6785C246.178 86.8782 246.098 87.0779 246.003 87.2706C245.824 87.6666 245.625 88.0485 245.404 88.4269C244.963 89.1802 244.454 89.902 243.869 90.5782C243.684 90.7954 243.494 91.0057 243.295 91.2124C243.2 91.3105 243.099 91.4121 243 91.5102C242.899 91.6118 242.801 91.7099 242.696 91.8045C242.696 91.8045 242.689 91.8045 242.689 91.8115C242.282 92.1899 241.862 92.5438 241.424 92.8732C240.986 93.199 240.53 93.5038 240.068 93.7806C239.844 93.9208 239.609 94.0469 239.371 94.1696C239.136 94.2922 238.897 94.4078 238.656 94.5199C238.414 94.6356 238.172 94.7372 237.927 94.8318C237.167 95.1296 236.385 95.3678 235.597 95.529C235.38 95.5851 235.152 95.6306 234.931 95.6622C234.868 95.6727 234.809 95.6797 234.746 95.6902C234.574 95.7182 234.409 95.7463 234.23 95.7568C232.149 96.002 230.026 95.7918 227.994 95.1121C227.433 94.9299 226.883 94.7092 226.34 94.4464C225.972 94.2747 225.618 94.0855 225.264 93.8858C225.128 93.8087 224.995 93.7316 224.868 93.6475C224.676 93.5249 224.479 93.4057 224.29 93.2726C224.196 93.206 224.098 93.1394 224.003 93.0729C223.975 93.0519 223.947 93.0343 223.919 93.0098C223.891 92.9888 223.859 92.9643 223.824 92.9397C223.793 92.9117 223.761 92.8872 223.726 92.8592C223.526 92.7015 222.833 92.1234 221.894 91.3315C220.871 90.1718 219.136 87.8768 218.365 84.5237C218.225 83.921 217.903 82.4144 217.991 80.5119C218.155 76.9976 219.609 73.8232 221.74 70.7959V70.7889C221.824 70.7083 221.911 70.6242 221.999 70.5472C222.083 70.4666 222.174 70.386 222.262 70.3124C222.654 69.9515 223.053 69.6222 223.453 69.3244C223.474 69.3068 223.498 69.2893 223.516 69.2788C223.576 69.2297 223.635 69.1842 223.691 69.1457C223.747 69.1036 223.803 69.0616 223.859 69.03C224.024 68.9144 224.192 68.7953 224.357 68.6867C224.374 68.6762 224.385 68.6621 224.402 68.6586C224.451 68.6271 224.497 68.5956 224.546 68.564C224.588 68.536 224.63 68.5115 224.672 68.4869C224.718 68.4554 224.763 68.4274 224.809 68.3994C224.854 68.3713 224.9 68.3433 224.945 68.3188C225.037 68.2627 225.128 68.2101 225.219 68.1576C225.313 68.105 225.404 68.0525 225.496 68.0034C225.685 67.9018 225.867 67.8072 226.049 67.7161C226.263 67.6075 226.473 67.5094 226.69 67.4148C226.701 67.4078 226.718 67.4043 226.732 67.3938C226.932 67.3097 227.132 67.2256 227.332 67.1485C227.594 67.0469 227.854 66.9558 228.109 66.8752C228.337 66.8051 228.572 66.7316 228.796 66.672C228.954 66.6264 229.108 66.5879 229.269 66.5564C229.409 66.5213 229.546 66.4898 229.686 66.4653C229.784 66.4442 229.886 66.4232 229.991 66.4057C230.064 66.3882 230.135 66.3777 230.208 66.3672C230.446 66.3286 230.685 66.2936 230.923 66.2656C231.018 66.2551 231.105 66.2445 231.2 66.2375C231.294 66.227 231.389 66.22 231.48 66.2095C231.837 66.1815 232.198 66.171 232.566 66.171C232.825 66.171 233.088 66.178 233.348 66.1955C233.348 66.1955 233.348 66.1955 233.355 66.1955C233.537 66.206 233.733 66.2165 233.919 66.2375C233.954 66.2375 233.985 66.2445 234.027 66.248C234.094 66.255 234.164 66.262 234.23 66.2726C234.252 66.2726 234.276 66.2726 234.297 66.2761C234.493 66.3006 234.693 66.3286 234.886 66.3602C235.075 66.3882 235.268 66.4232 235.457 66.4653C235.586 66.4898 235.713 66.5143 235.842 66.5494C236.024 66.5879 236.207 66.6334 236.389 66.6825C236.634 66.7491 236.879 66.8227 237.118 66.8997C237.293 66.9558 237.478 67.0154 237.654 67.0819C238.004 67.2081 238.354 67.3552 238.694 67.5024C238.866 67.583 239.031 67.6601 239.199 67.7406C239.371 67.8247 239.542 67.9193 239.714 68.0139C239.798 68.0595 239.882 68.1015 239.963 68.1541C240.152 68.2592 240.341 68.3678 240.523 68.4869C240.674 68.5815 240.825 68.6797 240.968 68.7813C240.979 68.7848 240.989 68.7918 240.996 68.7953C241.073 68.8513 241.15 68.9039 241.227 68.9635C241.329 69.03 241.431 69.1036 241.529 69.1807C241.63 69.2508 241.729 69.3279 241.823 69.4084C241.897 69.4645 241.967 69.5171 242.033 69.5801C242.149 69.6677 242.261 69.7623 242.366 69.8639C242.499 69.9795 242.633 70.1022 242.766 70.2248C242.934 70.379 243.095 70.5402 243.249 70.7048C243.589 71.0622 243.911 71.4336 244.209 71.8155C244.511 72.1974 244.787 72.5969 245.043 73.0033C245.789 74.1911 246.364 75.4735 246.753 76.8049C246.795 76.9591 246.841 77.1167 246.879 77.2779C247.243 78.6934 247.405 80.158 247.352 81.6156Z" fill="#05E205"/>
<path d="M62.5741 20.601L55.1251 33.621L40.122 33.6736L32.5749 20.7096L40.0309 7.69314L55.0305 7.63708L62.5741 20.601Z" fill="white"/>
<path d="M65.3876 83.9176L59.3471 94.4885L47.1715 94.5235L41.0539 84.0122L47.0979 73.4483L59.27 73.4063L65.3876 83.9176Z" fill="white"/>
<path d="M12.8241 29.0766L9.6357 34.6371L3.2273 34.6651L0.000335693 29.1221L3.18526 23.5582L9.59715 23.5371L12.8241 29.0766Z" fill="white"/>
<path d="M33.8642 50.8177L28.7557 59.7453L18.4651 59.7838L13.2901 50.8948L18.4021 41.9602L28.6926 41.9286L33.8642 50.8177Z" fill="white"/>
<path d="M82.0025 49.6405C80.5624 50.4779 80.0719 52.3349 80.9128 53.7749C81.7502 55.2115 83.6037 55.702 85.0437 54.8646C86.4803 54.0272 86.9708 52.1737 86.1334 50.7337C85.296 49.2936 83.439 48.8031 82.0025 49.6405Z" fill="white"/>
<path d="M150.69 26.095C150.999 26.2877 151.363 26.4138 151.77 26.4384H152.709C152.597 26.3473 151.885 26.2246 150.69 26.095ZM152.709 26.4384C152.712 26.4419 152.716 26.4419 152.716 26.4419V26.4384H152.709ZM223.947 10.0337C223.684 10.0337 223.457 10.0863 223.264 10.1879C223.075 10.293 222.917 10.4297 222.788 10.6013C222.661 10.773 222.57 10.9657 222.507 11.1795C222.444 11.3932 222.416 11.6069 222.416 11.8277C222.416 11.9608 222.427 12.0939 222.448 12.2271C222.472 12.3602 222.507 12.4899 222.556 12.6195C222.658 12.8998 222.826 13.1346 223.054 13.3238C223.285 13.5095 223.583 13.6041 223.947 13.6041H225.506V10.0337H223.947ZM254.16 10.0372C253.94 10.0337 253.775 10.0302 253.673 10.0302C253.568 10.0267 253.505 10.0232 253.484 10.0232H253.442C253.249 10.0232 253.064 10.0688 252.881 10.1564C252.699 10.244 252.535 10.3561 252.391 10.4962C252.251 10.6364 252.135 10.7975 252.051 10.9797C251.967 11.1619 251.925 11.3511 251.925 11.5404V13.6041H255.124V10.0512C254.703 10.0442 254.384 10.0407 254.16 10.0372Z" fill="white"/>
<path d="M264.041 26.929C263.757 26.6347 263.312 26.484 262.639 26.4384H241.403C229.21 26.4525 209.259 26.463 197.066 26.4665C184.873 26.47 164.922 26.47 152.729 26.463L152.719 26.449C152.715 26.449 152.715 26.4455 152.715 26.442C152.715 26.442 152.712 26.4419 152.708 26.4384H151.769C151.363 26.4139 150.999 26.2878 150.69 26.0951C149.965 25.6536 149.555 24.8442 149.681 24.1014C149.821 23.2851 150.596 22.5913 151.584 22.4862C188.124 22.5072 224.665 22.5282 261.21 22.5458C261.381 22.5738 262.593 22.7385 263.578 21.8625C264.769 20.8044 264.496 19.2172 264.482 19.1331C264.465 16.225 264.451 13.3133 264.436 10.4017C264.451 9.78154 264.472 6.23223 261.651 3.38717C258.687 0.398455 254.903 0.524592 254.311 0.552622H118.862V0.556119L120.968 8.49216L120.418 9.53628C120.418 9.53628 120.418 9.53628 120.414 9.53978C120.299 9.75702 116.556 16.6735 113.403 22.5142C112.643 23.9192 111.91 25.2682 111.276 26.4384H111.308C111.297 26.4384 111.287 26.442 111.276 26.442C110.817 27.2899 110.18 28.4706 109.724 29.3185C109.335 30.0368 109.1 30.4748 109.072 30.5273C109.346 30.8462 109.605 31.1826 109.829 31.5575C111.921 35.1558 110.695 39.7878 107.096 41.8796C103.494 43.9783 98.8625 42.752 96.7707 39.1571C95.2221 36.4978 95.4813 33.2848 97.1807 30.9373C97.6467 30.2926 98.3965 29.4727 99.5002 28.828C100.12 28.4601 100.677 28.2604 101.038 28.1448C101.925 27.868 102.853 27.7629 103.757 27.8189C103.96 27.2864 104.216 26.7783 104.43 26.3789L107.681 20.3804V20.3769L114.517 7.75637L112.608 0.556119V0.552622L112.576 0.422974L75.664 0.556119L69.1085 12.0064L74.5358 21.33L61.2671 44.5109L50.479 44.5494L44.929 54.2338L50.1531 63.2035L64.8759 63.1544L77.0796 84.121L69.7637 96.8887L76.0529 107.694L97.475 107.617L97.8184 106.941L105.642 91.5945L109.272 84.4749C109.206 84.3697 109.118 84.2926 109.058 84.1805C107.713 81.868 107.738 79.1246 108.883 76.9067C109.517 75.6734 110.498 74.6012 111.788 73.8514C115.39 71.7562 120.022 72.9825 122.117 76.5844C124.212 80.1792 122.986 84.8147 119.384 86.91C117.807 87.8315 116.038 88.0767 114.363 87.7999L104.616 106.941C115.817 106.945 127.012 106.941 138.21 106.941H174.116C200.745 106.945 227.367 106.945 253.995 106.941C261.08 106.941 264.426 103.651 264.433 96.668C264.44 83.725 264.359 70.7821 264.493 57.8427C264.521 55.278 263.813 54.6718 261.287 54.6718C226.312 54.7279 191.33 54.7349 156.352 54.7349L148.066 50.4217C146.423 49.5668 144.779 48.7119 143.14 47.857C140.477 46.4695 137.814 45.082 135.151 43.6945C135.053 43.7611 134.972 43.8452 134.867 43.9012C131.272 46 126.633 44.7737 124.542 41.1753C122.45 37.5734 123.669 32.9414 127.271 30.8462C130.866 28.7509 135.501 29.9773 137.6 33.5721C138.522 35.1593 138.77 36.9427 138.483 38.6175L156.303 47.892H162.557V47.8885H264.51C264.359 37.7942 264.31 30.6605 264.493 28.9051C264.524 28.6213 264.598 27.5071 264.041 26.929ZM233.75 5.88536C233.8 5.76623 233.87 5.66111 233.957 5.57352C234.045 5.48592 234.146 5.41935 234.262 5.36679C234.381 5.31774 234.507 5.29322 234.644 5.29322C234.777 5.29322 234.907 5.31774 235.026 5.36679C235.145 5.41935 235.25 5.48592 235.338 5.57352C235.425 5.66111 235.492 5.76623 235.544 5.88536C235.593 6.00799 235.618 6.13412 235.618 6.26727C235.618 6.40391 235.593 6.53005 235.544 6.64917C235.492 6.7648 235.425 6.86641 235.338 6.954C235.25 7.04159 235.145 7.11167 235.026 7.16072C234.907 7.21328 234.777 7.23781 234.644 7.23781C234.507 7.23781 234.381 7.21328 234.262 7.16072C234.146 7.11167 234.045 7.04159 233.957 6.954C233.87 6.86641 233.8 6.7648 233.75 6.64917C233.698 6.53005 233.673 6.40391 233.673 6.26727C233.673 6.13412 233.698 6.00799 233.75 5.88536ZM228.796 14.431V5.24065H230.601V13.6042H233.75V8.49916H235.551V13.5691H237.093V13.6042H238.305V8.49916H240.117V13.6042H242.002V8.49916H243.806V13.6042H245.702V8.49916H247.503V13.6042H250.113V11.5474C250.113 11.2917 250.152 11.0254 250.232 10.7591C250.309 10.4893 250.421 10.2265 250.569 9.97425C250.716 9.72198 250.891 9.48723 251.094 9.26649C251.301 9.04926 251.529 8.86005 251.777 8.70238C252.026 8.54471 252.296 8.42208 252.583 8.33799C252.867 8.2504 253.168 8.21185 253.484 8.22236L256.034 8.2574C256.157 8.2574 256.276 8.27843 256.385 8.32748C256.493 8.37653 256.588 8.4396 256.672 8.52019C256.753 8.60428 256.816 8.69537 256.865 8.80399C256.91 8.9091 256.935 9.02473 256.935 9.14736V14.431C256.935 14.5642 256.914 14.6903 256.872 14.8129C256.83 14.9321 256.77 15.0372 256.693 15.1248C256.613 15.2124 256.518 15.2825 256.409 15.335C256.301 15.3876 256.175 15.4156 256.034 15.4156H243.764V14.7989C243.701 14.9811 243.593 15.1283 243.438 15.2439C243.284 15.356 243.106 15.4156 242.906 15.4156H240.075V14.7989C240.012 14.9811 239.903 15.1283 239.745 15.2439C239.588 15.356 239.413 15.4156 239.216 15.4156H236.932V15.3911L232.258 15.4156H229.7C229.574 15.4156 229.458 15.3911 229.35 15.342C229.241 15.2965 229.143 15.2299 229.059 15.1493C228.975 15.0687 228.908 14.9741 228.863 14.862C228.814 14.7534 228.789 14.6378 228.789 14.5151C228.789 14.4801 228.793 14.4521 228.796 14.431ZM223.66 5.90987C223.712 5.79075 223.779 5.68564 223.866 5.59804C223.954 5.51395 224.056 5.44388 224.175 5.39132C224.294 5.34227 224.42 5.31774 224.553 5.31774C224.69 5.31774 224.816 5.34227 224.935 5.39132C225.058 5.44388 225.159 5.51395 225.247 5.59804C225.334 5.68564 225.405 5.79075 225.454 5.90987C225.506 6.03251 225.531 6.15864 225.531 6.29529C225.531 6.42843 225.506 6.55458 225.454 6.6737C225.405 6.78933 225.334 6.89444 225.247 6.97853C225.159 7.06612 225.058 7.1362 224.935 7.18525C224.816 7.23781 224.69 7.26233 224.553 7.26233C224.42 7.26233 224.294 7.23781 224.175 7.18525C224.056 7.1362 223.954 7.06612 223.866 6.97853C223.779 6.89444 223.712 6.78933 223.66 6.6737C223.611 6.55458 223.586 6.42843 223.586 6.29529C223.586 6.15864 223.611 6.03251 223.66 5.90987ZM216.442 11.4003C216.477 11.169 216.522 10.9448 216.579 10.7276C216.635 10.5138 216.698 10.3071 216.771 10.1179C216.845 9.92519 216.918 9.75701 216.999 9.60285L218.6 10.4367C218.492 10.647 218.4 10.8992 218.32 11.2006C218.243 11.4984 218.204 11.8102 218.204 12.1291C218.204 12.3253 218.225 12.5145 218.267 12.6897C218.309 12.8684 218.386 13.0225 218.499 13.1592C218.611 13.2923 218.768 13.4009 218.975 13.4815C219.178 13.5621 219.445 13.6077 219.77 13.6112C219.788 13.6077 219.816 13.6042 219.855 13.6042H221.007C220.874 13.3344 220.773 13.0506 220.709 12.7492C220.643 12.4479 220.611 12.1431 220.611 11.8277C220.611 11.3723 220.685 10.9273 220.825 10.4963C220.969 10.0653 221.182 9.67993 221.463 9.34357C221.743 9.00721 222.09 8.73391 222.507 8.5307C222.924 8.32397 223.404 8.22236 223.947 8.22236H226.161C226.319 8.22236 226.466 8.2539 226.61 8.31697C226.75 8.37654 226.869 8.46062 226.974 8.56923C227.079 8.67435 227.16 8.80048 227.219 8.94414C227.279 9.08429 227.307 9.23495 227.307 9.39262L227.314 14.5151C227.314 14.6378 227.293 14.7534 227.244 14.862C227.195 14.9741 227.132 15.0687 227.051 15.1493C226.971 15.2299 226.873 15.2965 226.764 15.342C226.655 15.3911 226.536 15.4156 226.414 15.4156H219.855C219.213 15.4156 218.674 15.321 218.236 15.1283C217.798 14.9391 217.44 14.6868 217.167 14.3785C216.894 14.0702 216.694 13.7163 216.575 13.3238C216.452 12.9279 216.393 12.5215 216.393 12.1045C216.393 11.8698 216.41 11.635 216.442 11.4003ZM160.932 92.1376H146.685C146.041 92.1376 145.393 92.1376 144.748 92.1341C142.628 92.1271 140.508 92.1236 138.392 92.1236C135.922 92.1236 133.452 92.1341 130.985 92.1726C129.265 92.2006 128.557 91.8398 128.546 89.9127C128.515 83.9037 128.424 83.9037 134.464 83.9037C140.109 83.9037 145.75 83.9213 151.394 83.9143C152.922 83.9143 154.45 83.9142 155.981 83.9037C156.573 83.9037 157.169 83.9037 157.768 83.8967C159.888 83.8932 162.011 83.8827 164.138 83.8652C166.009 83.8477 166.692 84.2857 166.681 86.3003C166.636 92.1376 166.723 92.1376 160.932 92.1376ZM201.309 69.5628C201.481 69.4227 201.652 69.286 201.831 69.1564C201.999 69.0303 202.171 68.9076 202.343 68.792C202.353 68.7815 202.371 68.771 202.381 68.7639C202.56 68.6413 202.732 68.5292 202.914 68.4206C203.646 67.9581 204.413 67.5762 205.202 67.2608C205.545 67.1207 205.896 66.9946 206.249 66.8894C206.348 66.8544 206.449 66.8229 206.547 66.7948C206.898 66.6897 207.259 66.5951 207.619 66.5216C207.763 66.49 207.91 66.455 208.057 66.434C208.057 66.434 208.064 66.434 208.068 66.434C208.176 66.4094 208.282 66.3954 208.39 66.3779C208.779 66.3113 209.168 66.2658 209.564 66.2377C209.76 66.2237 209.956 66.2097 210.153 66.2027C210.489 66.1887 210.832 66.1852 211.172 66.1992C211.46 66.2062 211.75 66.2202 212.038 66.2482C212.181 66.2623 212.325 66.2728 212.465 66.2938C212.493 66.2938 212.514 66.2938 212.539 66.3043H212.542C212.882 66.3429 213.215 66.3954 213.548 66.4655C213.712 66.4935 213.881 66.5286 214.042 66.5706C214.185 66.5986 214.329 66.6337 214.469 66.6757C214.613 66.7108 214.753 66.7493 214.89 66.7948C215.314 66.914 215.734 67.0611 216.144 67.2258C216.274 67.2749 216.4 67.3274 216.526 67.3835C216.74 67.4711 216.95 67.5692 217.16 67.6743C217.342 67.7654 217.528 67.86 217.71 67.9581C217.864 68.0352 218.019 68.1263 218.169 68.2209C218.18 68.2209 218.187 68.2244 218.197 68.2349C218.236 68.2524 218.274 68.2769 218.313 68.3015C218.513 68.4206 218.712 68.5467 218.912 68.6869C219.021 68.7534 219.119 68.8235 219.224 68.9041C219.273 68.9356 219.318 68.9707 219.368 69.0057C219.382 69.0127 219.396 69.0232 219.41 69.0337C219.424 69.0443 219.438 69.0548 219.452 69.0653C219.459 69.0688 219.469 69.0758 219.476 69.0828C219.487 69.0863 219.497 69.0933 219.504 69.1038C219.515 69.1108 219.525 69.1178 219.536 69.1248C219.662 69.2195 219.788 69.314 219.914 69.4087C220.005 69.4787 220.096 69.5453 220.187 69.6154C220.222 69.6399 220.257 69.6644 220.293 69.6925C220.51 69.8571 220.727 70.0218 220.944 70.1865C221.004 70.2355 221.067 70.2811 221.13 70.3301C221.197 70.3792 221.26 70.4282 221.326 70.4808C221.393 70.5299 221.463 70.5824 221.529 70.635C221.599 70.684 221.67 70.7366 221.74 70.7891C221.824 70.7085 221.911 70.6245 221.999 70.5474C222.083 70.4668 222.174 70.3862 222.262 70.3126C222.654 69.9517 223.053 69.6224 223.453 69.3246C223.474 69.307 223.498 69.2895 223.516 69.279C223.576 69.23 223.635 69.1844 223.691 69.1459C223.747 69.1038 223.803 69.0618 223.859 69.0302C224.024 68.9076 224.192 68.792 224.357 68.6869C224.374 68.6764 224.385 68.6623 224.402 68.6588C224.451 68.6273 224.497 68.5958 224.546 68.5643C224.588 68.5362 224.63 68.5117 224.672 68.4872C224.718 68.4556 224.763 68.4276 224.809 68.3996C224.854 68.3715 224.9 68.3435 224.946 68.319C225.037 68.2629 225.128 68.2104 225.219 68.1578C225.313 68.1052 225.405 68.0527 225.496 68.0036C225.678 67.8985 225.864 67.8039 226.049 67.7163C226.263 67.6077 226.473 67.5096 226.69 67.415C226.701 67.408 226.718 67.4045 226.732 67.394C226.932 67.3099 227.132 67.2258 227.332 67.1487C227.594 67.0471 227.854 66.956 228.109 66.8754C228.337 66.7984 228.565 66.7318 228.796 66.6722C228.954 66.6267 229.108 66.5881 229.269 66.5566C229.409 66.5215 229.546 66.49 229.686 66.4655C229.784 66.4374 229.886 66.4234 229.991 66.4059C230.065 66.3884 230.135 66.3779 230.208 66.3674C230.446 66.3288 230.685 66.2938 230.923 66.2658C231.018 66.2553 231.105 66.2448 231.2 66.2377C231.294 66.2272 231.389 66.2202 231.48 66.2097C231.837 66.1817 232.198 66.1712 232.566 66.1712C232.826 66.1712 233.088 66.1782 233.348 66.1957C233.348 66.1957 233.348 66.1957 233.355 66.1957C233.537 66.2062 233.733 66.2167 233.919 66.2377C233.954 66.2377 233.985 66.2447 234.027 66.2482C234.094 66.2553 234.164 66.2623 234.231 66.2728C234.252 66.2728 234.276 66.2728 234.297 66.2763C234.493 66.3008 234.693 66.3288 234.886 66.3604C235.075 66.3884 235.268 66.4234 235.457 66.4655C235.586 66.49 235.713 66.5145 235.842 66.5496C236.024 66.5881 236.207 66.6337 236.389 66.6827C236.634 66.7493 236.879 66.8229 237.118 66.9C237.293 66.956 237.479 67.0156 237.654 67.0821C238.004 67.2083 238.354 67.3554 238.694 67.5026C238.866 67.5832 239.031 67.6603 239.199 67.7409C239.371 67.8249 239.542 67.9196 239.714 68.0142C239.798 68.0597 239.882 68.1017 239.963 68.1543C240.152 68.2594 240.341 68.368 240.523 68.4872C240.674 68.5818 240.825 68.6799 240.968 68.7815C240.979 68.785 240.989 68.792 240.996 68.7955C241.073 68.8516 241.15 68.9041 241.228 68.9637C241.329 69.0302 241.431 69.1038 241.529 69.1809C241.63 69.251 241.729 69.3281 241.823 69.4087C241.897 69.4647 241.967 69.5173 242.033 69.5803C242.149 69.6679 242.261 69.7625 242.366 69.8641C242.499 69.9798 242.633 70.1024 242.766 70.225C242.934 70.3792 243.095 70.5404 243.249 70.705C243.589 71.0624 243.911 71.4338 244.209 71.8157C244.511 72.1976 244.787 72.5971 245.043 73.0035C245.789 74.1913 246.364 75.4737 246.753 76.8051C246.802 76.9593 246.841 77.117 246.879 77.2781C247.243 78.6936 247.405 80.1582 247.352 81.6158C247.345 81.8015 247.335 81.9837 247.317 82.1729C247.31 82.3095 247.3 82.4497 247.279 82.5933C247.272 82.6669 247.268 82.737 247.258 82.8106C247.243 82.9332 247.229 83.0593 247.205 83.182C247.201 83.2485 247.191 83.3081 247.177 83.3747C247.163 83.5148 247.135 83.6585 247.107 83.7986C247.1 83.8302 247.096 83.8582 247.089 83.8932C247.061 84.0579 247.03 84.2191 246.984 84.3873C246.907 84.7516 246.806 85.1125 246.697 85.4699C246.574 85.8799 246.431 86.2828 246.262 86.6787C246.178 86.8784 246.098 87.0781 246.003 87.2709C245.824 87.6668 245.625 88.0487 245.404 88.4271C244.963 89.1804 244.454 89.9022 243.869 90.5784C243.684 90.7956 243.494 91.0059 243.295 91.2126C243.2 91.3107 243.099 91.4123 243 91.5104C242.899 91.612 242.801 91.7101 242.696 91.8047C242.696 91.8047 242.689 91.8047 242.689 91.8117C242.282 92.1901 241.862 92.544 241.424 92.8734C240.986 93.1992 240.53 93.5041 240.068 93.7809C239.844 93.921 239.609 94.0471 239.371 94.1698C239.136 94.2994 238.898 94.415 238.656 94.5201C238.414 94.6358 238.172 94.7374 237.927 94.832C237.167 95.1298 236.385 95.3681 235.597 95.5292C235.38 95.5853 235.152 95.6308 234.931 95.6624C234.868 95.6729 234.809 95.6799 234.746 95.6904C234.574 95.7184 234.409 95.7465 234.231 95.757C232.149 96.0023 230.026 95.792 227.994 95.1123C227.433 94.9301 226.883 94.7094 226.34 94.4466C225.972 94.2749 225.618 94.0857 225.264 93.886C225.128 93.8089 224.995 93.7318 224.868 93.6477C224.676 93.5251 224.48 93.406 224.29 93.2728C224.196 93.2062 224.098 93.1397 224.003 93.0731C223.975 93.0521 223.947 93.0345 223.919 93.01C223.891 92.989 223.859 92.9645 223.824 92.9399C223.793 92.9189 223.758 92.8909 223.726 92.8664C223.579 92.7543 223.428 92.6456 223.281 92.5335C223.225 92.4915 223.183 92.4599 223.176 92.4564C223.025 92.3443 222.675 92.05 221.894 91.3317C221.41 91.6225 220.997 91.8818 220.65 92.1026C220.478 92.2112 220.321 92.3128 220.177 92.4074C220.142 92.4319 220.107 92.4529 220.072 92.4775C219.97 92.5405 219.876 92.6036 219.791 92.6596C219.77 92.6737 219.746 92.6877 219.721 92.7052C219.697 92.7227 219.672 92.7367 219.648 92.7543C219.459 92.8804 219.168 93.0696 218.796 93.3008C218.471 93.5041 218.138 93.7038 217.805 93.893C216.466 94.6533 215.051 95.2805 213.425 95.5573C213.243 95.5923 213.054 95.6203 212.872 95.6414C212.738 95.6624 212.609 95.6799 212.476 95.6904C212.458 95.6974 212.444 95.6974 212.427 95.6904C212.325 95.7079 212.227 95.7184 212.125 95.7254C212.094 95.7254 212.059 95.729 212.027 95.729C211.845 95.7465 211.666 95.7535 211.484 95.764C211.379 95.7675 211.27 95.7745 211.165 95.7675C210.776 95.7815 210.394 95.7815 210.012 95.7535C209.75 95.7395 209.49 95.7184 209.231 95.6904C208.874 95.6589 208.523 95.6063 208.176 95.5398C207.998 95.5082 207.826 95.4732 207.654 95.4416C207.493 95.4066 207.332 95.3751 207.171 95.3295C207.003 95.291 206.842 95.2524 206.687 95.2034C206.526 95.1578 206.372 95.1123 206.214 95.0597C206.183 95.0527 206.155 95.0422 206.123 95.0317C205.994 94.9932 205.871 94.9476 205.745 94.9021C205.461 94.804 205.177 94.6918 204.9 94.5762C204.739 94.5026 204.585 94.4361 204.427 94.366C204.186 94.2539 203.94 94.1312 203.702 94.0051C203.552 93.9245 203.401 93.8474 203.257 93.7598C203.24 93.7493 203.219 93.7388 203.201 93.7248C203.064 93.6477 202.924 93.5706 202.791 93.476C202.641 93.3884 202.493 93.2938 202.346 93.1922C202.203 93.0941 202.059 92.9925 201.919 92.8874C201.775 92.7928 201.638 92.6877 201.498 92.5721C201.362 92.4669 201.222 92.3548 201.088 92.2462C200.822 92.022 200.559 91.7837 200.311 91.535V91.5279C199.806 91.0409 199.333 90.5083 198.902 89.9407C198.678 89.6569 198.475 89.3696 198.278 89.0718C198.285 89.0648 198.285 89.0648 198.278 89.0648C198.079 88.7635 197.896 88.4551 197.725 88.1363C197.553 87.8175 197.385 87.4881 197.231 87.1517C194.491 81.1217 196.197 73.7463 201.309 69.5628ZM148.97 70.0288H155.83C157 70.0288 158.167 70.0358 159.338 70.0358C166.296 70.0463 173.254 70.0674 180.216 69.9973C182.017 69.9798 182.83 70.2671 182.823 72.3588C182.795 78.2977 182.897 78.2977 176.909 78.2977C173.346 78.2977 169.775 78.2942 166.212 78.2942C161.468 78.2942 156.731 78.2872 151.983 78.2942H151.962C151.955 78.2942 151.955 78.2872 151.955 78.2872C151.955 78.2872 151.955 78.2942 151.952 78.2942C151.934 78.2872 151.924 78.2872 151.906 78.2942C151.885 78.2872 151.86 78.2872 151.839 78.2942C151.783 78.2872 151.727 78.2872 151.675 78.2942C151.64 78.2872 151.601 78.2872 151.566 78.2942C151.486 78.2872 151.394 78.2872 151.314 78.2942C151.219 78.2872 151.128 78.2872 151.034 78.2942C150.526 78.2872 150.014 78.2872 149.502 78.2942C147.032 78.2942 144.566 78.2977 142.095 78.3047C138.55 78.3152 135 78.3328 131.455 78.3538C129.146 78.3713 128.466 77.7546 128.532 75.4351C128.687 70.0288 128.564 70.0288 133.935 70.0288H135.386L117.513 61.1398L101.97 65.2567L100.919 64.6996C100.919 64.6996 97.5415 62.9092 94.283 61.1818C91.3574 59.6226 88.5404 58.13 88.3547 58.0319C88.0288 58.3017 87.696 58.5645 87.3246 58.7852C83.7227 60.877 79.0872 59.6507 76.9955 56.0558C74.8967 52.4539 76.1195 47.8184 79.7214 45.7267C83.3233 43.6279 87.9552 44.8543 90.054 48.4561C90.8318 49.7946 91.1472 51.2767 91.0596 52.7202C91.5922 52.9234 92.0967 53.1757 92.4961 53.3894L102.703 58.8133L107.398 57.5694L118.102 54.7279L118.231 54.6963L118.298 54.7279L148.97 70.0288Z" fill="white"/>
<path d="M225.506 10.0337V13.6041H223.947C223.583 13.6041 223.285 13.5095 223.054 13.3238C222.826 13.1346 222.658 12.8998 222.556 12.6195C222.507 12.4899 222.472 12.3602 222.447 12.2271C222.426 12.0939 222.416 11.9608 222.416 11.8276C222.416 11.6069 222.444 11.3932 222.507 11.1795C222.57 10.9657 222.661 10.773 222.787 10.6013C222.917 10.4296 223.075 10.293 223.264 10.1879C223.457 10.0863 223.684 10.0337 223.947 10.0337H225.506Z" fill="white"/>
<path d="M255.124 10.0512V13.6041H251.925V11.5404C251.925 11.3511 251.967 11.1619 252.051 10.9797C252.135 10.7975 252.251 10.6364 252.391 10.4962C252.535 10.3561 252.699 10.244 252.881 10.1564C253.064 10.0688 253.249 10.0232 253.442 10.0232H253.484C253.505 10.0232 253.568 10.0267 253.673 10.0302C253.775 10.0302 253.94 10.0337 254.16 10.0372C254.384 10.0407 254.703 10.0442 255.124 10.0512Z" fill="white"/>
<path d="M132.593 39.9873C131.15 40.8247 129.296 40.3307 128.459 38.8942C127.622 37.4506 128.109 35.6041 129.552 34.7667C130.989 33.9293 132.842 34.4163 133.68 35.8599C134.52 37.2929 134.03 39.1464 132.593 39.9873Z" fill="white"/>
<path d="M118.579 80.7819C118.575 80.824 118.568 80.8625 118.558 80.901C118.554 80.9221 118.554 80.9396 118.55 80.9571C118.547 80.9851 118.54 81.0132 118.533 81.0412C118.519 81.1043 118.501 81.1673 118.484 81.2304C118.484 81.2374 118.48 81.2444 118.477 81.2549C118.459 81.318 118.438 81.3776 118.414 81.4371C118.351 81.6123 118.27 81.784 118.169 81.9452C118.116 82.0293 118.06 82.1098 118.004 82.1869C117.965 82.2395 117.923 82.292 117.881 82.3446C117.843 82.3936 117.801 82.4427 117.748 82.4918C117.657 82.5864 117.555 82.6775 117.447 82.7615C117.419 82.7861 117.394 82.8071 117.366 82.8246C117.342 82.8456 117.314 82.8667 117.286 82.8842C117.23 82.9227 117.17 82.9613 117.11 82.9963C116.263 83.4903 115.267 83.5184 114.423 83.161C113.834 82.9157 113.319 82.4848 112.976 81.8961C112.503 81.0868 112.454 80.1442 112.759 79.3243V79.3208C112.787 79.2403 112.822 79.1632 112.857 79.0896C112.892 79.0125 112.93 78.9354 112.976 78.8619C113.004 78.8093 113.039 78.7568 113.074 78.7042C113.127 78.6271 113.183 78.55 113.242 78.4764C113.27 78.4379 113.305 78.3994 113.34 78.3643C113.372 78.3293 113.407 78.2943 113.442 78.2592C113.467 78.2347 113.488 78.2102 113.512 78.1891C113.533 78.1611 113.558 78.1401 113.582 78.1226C113.631 78.077 113.684 78.035 113.736 77.9964C113.789 77.9544 113.841 77.9158 113.897 77.8808C113.954 77.8423 114.01 77.8072 114.069 77.7722C114.094 77.7547 114.122 77.7442 114.146 77.7266C114.146 77.7231 114.15 77.7231 114.153 77.7231C114.223 77.6811 114.297 77.646 114.371 77.6145C114.381 77.6075 114.395 77.604 114.406 77.6005C114.448 77.583 114.486 77.5655 114.528 77.5514C114.56 77.5374 114.591 77.5269 114.623 77.5164C114.749 77.4744 114.875 77.4393 115.005 77.4148C115.068 77.4008 115.131 77.3903 115.197 77.3833C115.39 77.3587 115.586 77.3517 115.779 77.3658C115.832 77.3693 115.884 77.3728 115.94 77.3798C115.954 77.3798 115.968 77.3833 115.982 77.3868C116.042 77.3938 116.101 77.4043 116.161 77.4148C116.22 77.4253 116.28 77.4393 116.336 77.4534C116.343 77.4534 116.35 77.4568 116.354 77.4568C116.417 77.4744 116.476 77.4919 116.536 77.5129C116.599 77.5339 116.658 77.555 116.715 77.576C116.778 77.6005 116.837 77.6285 116.897 77.6566C116.939 77.6776 116.981 77.6986 117.019 77.7231C117.093 77.7617 117.163 77.8037 117.233 77.8493C117.275 77.8738 117.317 77.9018 117.359 77.9334C117.398 77.9614 117.436 77.9929 117.475 78.021C117.545 78.0735 117.608 78.1296 117.671 78.1926C117.682 78.2032 117.692 78.2102 117.699 78.2207C117.717 78.2312 117.727 78.2452 117.741 78.2592C117.773 78.2907 117.804 78.3258 117.836 78.3608C117.899 78.4309 117.958 78.5045 118.014 78.5816C118.049 78.6236 118.077 78.6691 118.109 78.7147C118.141 78.7602 118.169 78.8058 118.197 78.8549C118.55 79.461 118.666 80.1372 118.579 80.7819Z" fill="white"/>
<path d="M113.442 78.2591C113.466 78.2346 113.487 78.21 113.512 78.189C113.452 78.2416 113.393 78.3011 113.34 78.3642C113.372 78.3292 113.407 78.2941 113.442 78.2591Z" fill="white"/>
<path d="M114.069 77.7685C114.094 77.7545 114.118 77.7405 114.146 77.7265C114.122 77.744 114.094 77.7545 114.069 77.7721C114.01 77.8071 113.953 77.8421 113.897 77.8807C113.953 77.8386 114.01 77.8036 114.069 77.7685Z" fill="white"/>
<path d="M117.447 82.7615C117.555 82.6774 117.657 82.5864 117.748 82.4918C117.636 82.6144 117.506 82.7265 117.366 82.8246C117.394 82.8071 117.419 82.7861 117.447 82.7615Z" fill="white"/>
<path d="M118.004 82.1866C118.06 82.1095 118.116 82.029 118.168 81.9449C118.088 82.085 117.993 82.2182 117.881 82.3443C117.923 82.2917 117.965 82.2392 118.004 82.1866Z" fill="white"/>
<path d="M118.578 80.7819C118.571 80.838 118.561 80.8975 118.55 80.9571C118.554 80.9396 118.554 80.922 118.557 80.901C118.568 80.8625 118.575 80.8239 118.578 80.7819Z" fill="white"/>
<path d="M104.816 37.9659C103.379 38.8033 101.526 38.3093 100.688 36.8728C99.8509 35.4362 100.334 33.5757 101.774 32.7383C103.211 31.9009 105.071 32.3949 105.909 33.8385C106.743 35.268 106.259 37.1285 104.816 37.9659Z" fill="white"/>
<path d="M262.639 26.4385H241.403L262.113 26.4245C262.303 26.4245 262.481 26.428 262.639 26.4385Z" fill="white"/>
<path d="M262.639 26.4385H241.403L262.113 26.4245C262.303 26.4245 262.481 26.428 262.639 26.4385Z" fill="white"/>
</svg>