<svg xmlns="http://www.w3.org/2000/svg" width="17" height="17" viewBox="0 0 17 17" fill="none" style="&#10;    /* fill: red; */&#10;    color: red;&#10;">
<g clip-path="url(#clip0_178_1923)" style="&#10;    /* fill: red; */&#10;">
<path d="M0.775885 17C0.20342 17 0 16.8005 0 16.2375C0 11.0792 0 5.92029 0 0.761435C0 0.206755 0.202864 0.000555792 0.748096 0.000555792C3.33197 0 5.91584 0 8.49972 0C11.0836 0 13.668 0 16.2519 0.000555792C16.7899 0.000555792 17 0.21398 17 0.761435C17.0006 5.92029 17.0006 11.0792 17 16.238C17 16.801 16.7971 17.0006 16.2247 17.0006H12.6265L0.775885 17ZM1.21274 15.7873H15.7873V1.21107H1.21274V15.7873Z" fill="white"/>
<path d="M10.4751 5.15274C9.80422 5.15274 9.13338 5.14663 8.48033 5.13384C8.31192 5.13051 8.16742 5.06937 8.06182 4.9571C7.95511 4.84317 7.90064 4.68977 7.90786 4.52414C7.92343 4.18122 8.1941 3.95056 8.58148 3.9489C8.8277 3.94778 9.07447 3.94778 9.32069 3.94778L10.4678 3.94834C10.6624 3.94834 11.4394 3.94778 11.6333 3.94778C11.8829 3.94778 12.1324 3.94834 12.382 3.94945C12.7638 3.95112 13.0384 4.19011 13.0506 4.53025C13.0562 4.68977 13 4.83983 12.8922 4.95377C12.7838 5.06826 12.6315 5.13273 12.4637 5.13551C11.7945 5.14663 11.1253 5.15274 10.4751 5.15274Z" fill="white"/>
<path d="M10.4667 13.0511C10.2744 13.0511 9.50408 13.0517 9.31177 13.0517C9.06778 13.0517 8.82379 13.0511 8.58035 13.0505C8.18852 13.0489 7.91174 12.8054 7.90729 12.4581C7.90507 12.2974 7.96176 12.1502 8.0668 12.0423C8.18074 11.9256 8.34636 11.8606 8.53367 11.8584C9.16838 11.8511 9.81921 11.8478 10.4673 11.8478C11.1053 11.8478 11.76 11.8511 12.412 11.8584C12.6048 11.8606 12.7766 11.9301 12.895 12.054C13.0011 12.1652 13.0561 12.3125 13.0506 12.4692C13.0378 12.8093 12.7627 13.0483 12.3803 13.05C12.1313 13.0511 11.8818 13.0517 11.6328 13.0517C11.4388 13.0517 10.6612 13.0511 10.4667 13.0511Z" fill="white"/>
<path d="M10.5015 9.09831C9.84014 9.09831 9.17597 9.09609 8.52681 9.09109C8.19834 9.08887 7.9649 8.896 7.91655 8.58754C7.8732 8.30853 8.02437 8.04787 8.28448 7.95394C8.36618 7.92448 8.47845 7.90892 8.61851 7.9067C8.86362 7.90392 9.13262 7.90225 9.46554 7.90225C9.63728 7.90225 9.80846 7.90281 9.9802 7.90281C10.1447 7.90336 10.3092 7.90336 10.4737 7.90336H10.4943C10.6849 7.90336 10.875 7.90281 11.0657 7.90225C11.2557 7.90169 11.4453 7.90114 11.6354 7.90114C11.9255 7.90114 12.1634 7.90225 12.3851 7.90447C12.7786 7.90836 13.0526 8.15347 13.051 8.49973C13.0498 8.83987 12.7792 9.08831 12.4073 9.09053C11.7693 9.09609 11.1279 9.09831 10.5015 9.09831Z" fill="white"/>
<path d="M3.96191 5.14441V3.95779H5.14686V4.16622C5.14686 4.26515 5.14742 4.36408 5.14742 4.46301C5.14853 4.68533 5.14909 4.91431 5.14519 5.13996C4.84673 5.14385 4.55494 5.14497 4.29928 5.14497L3.96191 5.14441Z" fill="white"/>
<path d="M3.9707 13.0333V11.855H4.29862C4.55373 11.855 4.84441 11.8556 5.14287 11.8584C5.14676 12.2447 5.1462 12.6298 5.14565 13.0333H3.9707Z" fill="white"/>
<path d="M3.96875 9.09498V7.90447C3.97097 7.90447 4.23442 7.90392 4.36281 7.90392C4.59679 7.90392 4.86469 7.90447 5.14314 7.90836C5.14925 8.30131 5.14925 8.69703 5.14314 9.09109C4.86357 9.09498 4.59402 9.09553 4.35836 9.09553C4.23108 9.09553 3.97042 9.09498 3.96875 9.09498Z" fill="white"/>
</g>
<defs>
<clipPath id="clip0_178_1923">
<rect width="17" height="17" fill="white"/>
</clipPath>
</defs>
</svg>