<svg xmlns="http://www.w3.org/2000/svg" width="18" height="20" viewBox="0 0 18 20" fill="none">
<g clip-path="url(#clip0_39_306)">
<path d="M8.99695 12.011C10.4096 12.011 11.823 11.9866 13.2353 12.0181C14.5595 12.0477 15.6818 12.5912 16.5959 13.5394C17.5464 14.5254 18.0026 15.7189 17.9977 17.0891C17.9955 17.7267 18.0056 18.3643 17.9943 19.0019C17.9819 19.7127 17.3004 20.1763 16.6394 19.9366C16.2309 19.7885 15.9909 19.419 15.9871 18.9153C15.9819 18.2278 15.995 17.5399 15.9777 16.8528C15.9395 15.3517 14.7166 14.0994 13.2147 14.0075C13.1213 14.0018 13.0275 13.9962 12.9337 13.9962C10.308 13.9955 7.68219 13.9906 5.05643 13.9977C3.76267 14.0011 2.8309 14.6083 2.25549 15.7591C2.0533 16.163 1.99591 16.603 1.99816 17.0523C2.00116 17.6712 2.00191 18.29 1.99778 18.9089C1.99403 19.4396 1.74459 19.8031 1.29671 19.949C0.704033 20.1422 0.0205832 19.739 0.00595393 19.1201C-0.0169278 18.1471 0.0322116 17.1727 0.0509671 16.1986C0.479717 14.1102 1.69545 12.7333 3.76267 12.1647C4.20755 12.0425 4.6877 12.014 5.15283 12.0065C6.4342 11.9858 7.71595 11.9993 8.99733 11.9993C8.99695 12.0031 8.99695 12.0068 8.99695 12.011Z" fill="white"/>
<path d="M8.98486 1.20429e-06C11.7348 -0.0127513 13.9704 2.20955 13.9986 4.98322C14.0263 7.71075 11.7678 9.98069 9.00962 9.99831C6.26232 10.0159 3.99853 7.76326 3.98541 4.99859C3.97265 2.25869 6.21881 0.0127537 8.98486 1.20429e-06ZM8.98374 7.98267C10.647 7.98717 11.9805 6.66879 11.9902 5.00985C12 3.3449 10.6684 2.00139 9.00099 1.99426C7.34676 1.98714 6.00124 3.32052 5.99487 4.97346C5.98886 6.64629 7.3115 7.97817 8.98374 7.98267Z" fill="white"/>
</g>
<defs>
<clipPath id="clip0_39_306">
<rect width="18" height="20" fill="white"/>
</clipPath>
</defs>
</svg>