<svg xmlns="http://www.w3.org/2000/svg" width="27" height="25" viewBox="0 0 27 25" fill="none">
<path d="M25.546 10.1952L21.7526 8.02219C21.6763 7.88323 21.5965 7.74786 21.5144 7.6137L21.5001 3.3012C20.3012 2.28358 18.9221 1.50284 17.4351 1L13.6239 3.14307C13.4643 3.14307 13.3035 3.14307 13.1475 3.14307L9.33624 1C7.84975 1.50448 6.4714 2.28686 5.27368 3.30599L5.25463 7.61849C5.17126 7.75266 5.09146 7.88922 5.01642 8.02698L1.22423 10.1952C0.925256 11.7162 0.925256 13.2814 1.22423 14.8024L5.01761 16.9754C5.09384 17.1144 5.17364 17.2497 5.25582 17.3839L5.27011 21.6964C6.46913 22.715 7.8487 23.4966 9.33624 24L13.1475 21.8593C13.3071 21.8593 13.4679 21.8593 13.6239 21.8593L17.4351 24C18.9204 23.4951 20.2975 22.7127 21.4941 21.694L21.5132 17.3815C21.5965 17.2473 21.6763 17.1108 21.7514 16.973L25.5436 14.8048C25.8436 13.2832 25.8445 11.7171 25.546 10.1952ZM13.3857 17.2917C12.4434 17.2917 11.5224 17.0106 10.7389 16.4841C9.95547 15.9576 9.34485 15.2093 8.98427 14.3337C8.62369 13.4581 8.52934 12.4947 8.71317 11.5652C8.89699 10.6357 9.35072 9.78191 10.017 9.11178C10.6833 8.44165 11.5321 7.98529 12.4563 7.8004C13.3804 7.61552 14.3383 7.71041 15.2088 8.07308C16.0793 8.43575 16.8234 9.04991 17.3469 9.83789C17.8703 10.6259 18.1497 11.5523 18.1497 12.5C18.1497 13.7708 17.6478 14.9896 16.7544 15.8882C15.861 16.7868 14.6492 17.2917 13.3857 17.2917Z" fill="#2984FF"/>
<path d="M13.385 16.9231C15.8278 16.9231 17.8081 14.9428 17.8081 12.5C17.8081 10.0572 15.8278 8.07692 13.385 8.07692C10.9422 8.07692 8.96191 10.0572 8.96191 12.5C8.96191 14.9428 10.9422 16.9231 13.385 16.9231Z" stroke="#1E293B" stroke-linecap="round" stroke-linejoin="round"/>
<path d="M13.63 21.8569C13.4704 21.8569 13.3096 21.8569 13.1535 21.8569L9.33593 24C7.84977 23.4973 6.47131 22.7169 5.27294 21.7L5.25865 17.3875C5.17408 17.2533 5.09427 17.118 5.02042 16.979L1.22425 14.8048C0.925248 13.2838 0.925248 11.7186 1.22425 10.1976L5.01685 8.02937C5.09427 7.89161 5.17408 7.75505 5.25508 7.62088L5.27413 3.30839C6.47143 2.28853 7.84952 1.50533 9.33593 1L13.1476 3.14307C13.3072 3.14307 13.468 3.14307 13.624 3.14307L17.4357 1C18.9218 1.50275 20.3003 2.28307 21.4987 3.3L21.513 7.6125C21.5975 7.74667 21.6773 7.88203 21.7512 8.02099L25.545 10.194C25.844 11.715 25.844 13.2802 25.545 14.8012L21.7524 16.9694C21.675 17.1072 21.5952 17.2437 21.5142 17.3779L21.4951 21.6904C20.2986 22.7104 18.9213 23.494 17.4357 24L13.63 21.8569Z" stroke="#1E293B" stroke-linecap="round" stroke-linejoin="round"/>
</svg>