<svg xmlns="http://www.w3.org/2000/svg" width="20" height="20" viewBox="0 0 20 20" fill="none">
<g clip-path="url(#clip0_39_310)">
<path d="M10.0014 20C7.22643 20 4.45142 20 1.67603 20C1.06072 20 0.771532 19.6985 0.771532 19.0576C0.771148 16.2389 0.772686 13.4206 0.766918 10.6019C0.766533 10.48 0.721155 10.3428 0.656933 10.2393C0.252756 9.58519 0.0147114 8.87791 0.0047127 8.09707C-0.00259401 7.52414 -0.000671191 6.9508 0.00548183 6.37786C0.00663552 6.26831 0.0312476 6.15197 0.0727805 6.05081C0.820372 4.23285 1.57489 2.41768 2.32132 0.599321C2.49015 0.18871 2.76511 -0.000402998 3.19967 -3.18211e-06C7.73713 0.00599406 12.275 0.00559424 16.8124 0.000396634C17.237 -3.1821e-06 17.5127 0.180314 17.6793 0.584928C18.4292 2.40929 19.186 4.23045 19.9386 6.05361C19.9686 6.12598 20.0013 6.20594 20.0005 6.28191C19.9928 7.04076 20.0047 7.80121 19.9578 8.55766C19.9197 9.17218 19.6686 9.72472 19.3475 10.2421C19.2837 10.3452 19.241 10.4836 19.2406 10.6059C19.2348 13.4246 19.236 16.2429 19.236 19.0616C19.236 19.6993 18.9449 19.9996 18.3272 19.9996C15.5518 20 12.7768 20 10.0014 20ZM8.47742 18.3779C11.5547 18.3779 14.6185 18.3779 17.6831 18.3779C17.6831 16.1442 17.6831 13.928 17.6831 11.697C15.863 12.3679 14.3328 11.9277 13.0791 10.4296C11.8181 11.9357 10.2906 12.3619 8.47742 11.6982C8.47742 13.9272 8.47742 16.1434 8.47742 18.3779ZM1.95522 5.58623C7.33526 5.58623 12.6803 5.58623 18.0434 5.58623C18.0173 5.51226 18.0007 5.45629 17.9784 5.40271C17.4851 4.20366 16.9878 3.00581 16.5002 1.80397C16.4379 1.65004 16.3587 1.60446 16.2021 1.60446C12.07 1.60886 7.93749 1.60926 3.80535 1.60366C3.63499 1.60326 3.56308 1.66403 3.49963 1.82156C3.11583 2.77272 2.72012 3.71869 2.3294 4.66705C2.20672 4.96531 2.08636 5.26438 1.95522 5.58623ZM6.91455 10.448C5.63934 11.9445 4.11877 12.3571 2.32748 11.699C2.32748 13.9332 2.32748 16.1546 2.32748 18.3831C3.8615 18.3831 5.38283 18.3831 6.91455 18.3831C6.91455 15.742 6.91455 13.1132 6.91455 10.448ZM1.5472 7.21228C1.5472 7.51774 1.54143 7.80281 1.54835 8.08748C1.57681 9.30891 2.58052 10.3664 3.75459 10.3944C5.2467 10.43 6.435 9.14979 6.12389 7.21228C4.60871 7.21228 3.09276 7.21228 1.5472 7.21228ZM7.70021 7.21588C7.70021 7.51854 7.69522 7.79761 7.70098 8.07668C7.73829 9.82947 9.60688 10.9646 11.0786 10.1105C12.2438 9.43446 12.3984 8.39254 12.2842 7.21588C10.7644 7.21588 9.24385 7.21588 7.70021 7.21588ZM13.8555 7.21668C13.8555 7.54772 13.8421 7.85438 13.8578 8.15944C13.9336 9.64556 15.3846 10.7311 16.7544 10.3081C18.1342 9.88185 18.6199 8.65961 18.4349 7.21708C16.9155 7.21668 15.3949 7.21668 13.8555 7.21668Z" fill="white"/>
<path d="M5.39581 14.3974C5.8196 14.4006 6.16032 14.7592 6.15955 15.2014C6.1584 15.6508 5.80614 16.0086 5.37235 16.0006C4.95087 15.993 4.61322 15.6284 4.61822 15.1866C4.62245 14.748 4.97125 14.3942 5.39581 14.3974Z" fill="white"/>
</g>
<defs>
<clipPath id="clip0_39_310">
<rect width="20" height="20" fill="white"/>
</clipPath>
</defs>
</svg>