<svg xmlns="http://www.w3.org/2000/svg" width="76" height="76" viewBox="0 0 76 76" fill="none">
<g clip-path="url(#clip0_181_3272)">
<path d="M75.999 37.3007C75.4366 15.6711 57.493 -0.904497 36.2814 0.037903C15.5638 0.957503 -0.973761 18.6351 0.0446389 39.7631C1.04024 60.4579 18.4822 76.9271 39.7394 75.9619C60.419 75.0195 76.4018 57.6611 75.999 37.3007ZM29.8442 55.1911C25.6642 51.0339 21.431 46.8311 17.2206 42.6435C18.4442 41.4047 19.6754 40.1583 20.9978 38.8283C23.9238 41.7999 26.8498 44.7715 29.8442 47.8115C38.3106 39.3147 46.6554 30.9243 55.0458 22.5035C56.3378 23.8563 57.5538 25.1255 58.7318 26.3567C49.1406 35.9327 39.4658 45.5847 29.8442 55.1911Z" fill="#14CE6A"/>
</g>
<defs>
<clipPath id="clip0_181_3272">
<rect width="76" height="76" fill="white"/>
</clipPath>
</defs>
</svg>