<svg xmlns="http://www.w3.org/2000/svg" width="53" height="57" viewBox="0 0 53 57" fill="none">
<path d="M51.4167 19.3333H1V7.87498C1 7.26719 1.24144 6.6843 1.67121 6.25453C2.10098 5.82476 2.68388 5.58331 3.29167 5.58331H49.125C49.7328 5.58331 50.3157 5.82476 50.7455 6.25453C51.1752 6.6843 51.4167 7.26719 51.4167 7.87498V19.3333Z" fill="#2984FF"/>
<path d="M49.125 5.58331H3.29167C2.02601 5.58331 1 6.60933 1 7.87498V53.7083C1 54.974 2.02601 56 3.29167 56H49.125C50.3907 56 51.4167 54.974 51.4167 53.7083V7.87498C51.4167 6.60933 50.3907 5.58331 49.125 5.58331Z" stroke="#1E293B" stroke-width="2" stroke-linecap="round" stroke-linejoin="round"/>
<path d="M39.958 1V10.1667" stroke="#1E293B" stroke-width="2" stroke-linecap="round" stroke-linejoin="round"/>
<path d="M12.458 1V10.1667" stroke="#1E293B" stroke-width="2" stroke-linecap="round" stroke-linejoin="round"/>
<path d="M1 19.3333H51.4167" stroke="#1E293B" stroke-width="2" stroke-linecap="round" stroke-linejoin="round"/>
<path d="M15.8955 37.6667L22.7705 44.5417L36.5205 30.7917" stroke="#1E293B" stroke-width="2" stroke-linecap="round" stroke-linejoin="round"/>
</svg>