<svg xmlns="http://www.w3.org/2000/svg" width="24" height="24" viewBox="0 0 24 24" fill="none">
<g clip-path="url(#clip0_4_96)">
<path d="M12 3C10.1793 2.99989 8.4014 3.55199 6.90103 4.58339C5.40066 5.61479 4.24839 7.077 3.59637 8.77693C2.94435 10.4769 2.82324 12.3346 3.24903 14.1048C3.67482 15.875 4.62749 17.4744 5.98125 18.6919C6.54587 17.5809 7.40707 16.6478 8.4694 15.9962C9.53173 15.3446 10.7537 14.9998 12 15C11.2583 15 10.5333 14.7801 9.91661 14.368C9.29992 13.956 8.81928 13.3703 8.53545 12.6851C8.25162 11.9998 8.17736 11.2458 8.32205 10.5184C8.46675 9.79098 8.8239 9.1228 9.34835 8.59835C9.87279 8.0739 10.541 7.71675 11.2684 7.57205C11.9958 7.42736 12.7498 7.50162 13.4351 7.78545C14.1203 8.06928 14.706 8.54993 15.118 9.16661C15.5301 9.7833 15.75 10.5083 15.75 11.25C15.75 12.2446 15.3549 13.1984 14.6516 13.9017C13.9484 14.6049 12.9946 15 12 15C13.2462 14.9997 14.4681 15.3443 15.5304 15.9958C16.5927 16.6473 17.454 17.5801 18.0187 18.6909C19.3722 17.4734 20.3245 15.874 20.7501 14.104C21.1757 12.334 21.0545 10.4765 20.4025 8.77676C19.7505 7.07704 18.5984 5.61499 17.0983 4.58363C15.5981 3.55228 13.8205 3.0001 12 3Z" fill="#2984FF"/>
<path d="M5.98126 18.6909C6.54555 17.5795 7.4066 16.6459 8.46896 15.9939C9.53132 15.3418 10.7535 14.9966 12 14.9966C13.2465 14.9966 14.4687 15.3418 15.5311 15.9939C16.5934 16.6459 17.4545 17.5795 18.0188 18.6909" stroke="#1E293B" stroke-linecap="round" stroke-linejoin="round"/>
<path d="M12 21C16.9706 21 21 16.9706 21 12C21 7.02944 16.9706 3 12 3C7.02944 3 3 7.02944 3 12C3 16.9706 7.02944 21 12 21Z" stroke="#1E293B" stroke-linecap="round" stroke-linejoin="round"/>
<path d="M12 15C14.0711 15 15.75 13.3211 15.75 11.25C15.75 9.17893 14.0711 7.5 12 7.5C9.92893 7.5 8.25 9.17893 8.25 11.25C8.25 13.3211 9.92893 15 12 15Z" stroke="#1E293B" stroke-linecap="round" stroke-linejoin="round"/>
</g>
<defs>
<clipPath id="clip0_4_96">
<rect width="24" height="24" fill="white"/>
</clipPath>
</defs>
</svg>